<svg width="14" height="15" viewBox="0 0 14 15" fill="none" xmlns="http://www.w3.org/2000/svg">
<g clip-path="url(#clip0_2667_1349)">
<path fill-rule="evenodd" clip-rule="evenodd" d="M0 4C0 2.067 1.567 0.5 3.5 0.5H10.5C12.433 0.5 14 2.067 14 4V11C14 12.933 12.433 14.5 10.5 14.5H3.5C1.567 14.5 0 12.933 0 11V4ZM7 3.75C7.41421 3.75 7.75 4.08579 7.75 4.5V6.75H10C10.4142 6.75 10.75 7.08579 10.75 7.5C10.75 7.91421 10.4142 8.25 10 8.25H7.75V10.5C7.75 10.9142 7.41421 11.25 7 11.25C6.58579 11.25 6.25 10.9142 6.25 10.5V8.25H4C3.58579 8.25 3.25 7.91421 3.25 7.5C3.25 7.08579 3.58579 6.75 4 6.75H6.25V4.5C6.25 4.08579 6.58579 3.75 7 3.75Z" fill="white"/>
</g>
<defs>
<clipPath id="clip0_2667_1349">
<rect width="14" height="14" fill="white" transform="translate(0 0.5)"/>
</clipPath>
</defs>
</svg>
