<svg width="21" height="20" viewBox="0 0 21 20" fill="none" xmlns="http://www.w3.org/2000/svg">
  <g clip-path="url(#clip0_168_709)">
    <path
      d="M3.83331 5C3.83331 6.38083 6.81831 7.5 10.5 7.5C14.1816 7.5 17.1666 6.38083 17.1666 5C17.1666 3.61917 14.1816 2.5 10.5 2.5C6.81831 2.5 3.83331 3.61917 3.83331 5Z"
      stroke="currentColor"
      stroke-width="2"
      stroke-linecap="round"
      stroke-linejoin="round"
    />
    <path
      d="M3.83331 5V10C3.83331 11.3808 6.81831 12.5 10.5 12.5C11.4316 12.5 12.3191 12.4283 13.125 12.2992"
      stroke="currentColor"
      stroke-width="2"
      stroke-linecap="round"
      stroke-linejoin="round"
    />
    <path
      d="M17.1667 10V5"
      stroke="currentColor"
      stroke-width="2"
      stroke-linecap="round"
      stroke-linejoin="round"
    />
    <path
      d="M3.83331 10V15C3.83331 16.3808 6.81831 17.5 10.5 17.5C10.6308 17.5 10.76 17.4983 10.8883 17.4958"
      stroke="currentColor"
      stroke-width="2"
      stroke-linecap="round"
      stroke-linejoin="round"
    />
    <path
      d="M13.8333 15.8335H18.8333"
      stroke="currentColor"
      stroke-width="2"
      stroke-linecap="round"
      stroke-linejoin="round"
    />
    <path
      d="M16.3333 13.3335L18.8333 15.8335L16.3333 18.3335"
      stroke="currentColor"
      stroke-width="2"
      stroke-linecap="round"
      stroke-linejoin="round"
    />
  </g>
  <defs>
    <clipPath id="clip0_168_709">
      <rect width="20" height="20" fill="white" transform="translate(0.5)" />
    </clipPath>
  </defs>
</svg>
