<svg width="20" height="20" viewBox="0 0 20 20" fill="none" xmlns="http://www.w3.org/2000/svg">
<path d="M3.33329 12.9167C2.41282 12.9167 1.66663 12.1705 1.66663 11.25C1.66663 10.3295 2.41282 9.58337 3.33329 9.58337" stroke="#FDFDFD" stroke-width="1.25" stroke-linecap="round" stroke-linejoin="round"/>
<path d="M16.6666 12.9167C17.5871 12.9167 18.3333 12.1705 18.3333 11.25C18.3333 10.3295 17.5871 9.58337 16.6666 9.58337" stroke="#FDFDFD" stroke-width="1.25" stroke-linecap="round" stroke-linejoin="round"/>
<path d="M5.83337 5.83337V3.33337" stroke="#FDFDFD" stroke-width="1.25" stroke-linejoin="round"/>
<path d="M14.1666 5.83337V3.33337" stroke="#FDFDFD" stroke-width="1.25" stroke-linejoin="round"/>
<path d="M5.83333 3.33329C6.29357 3.33329 6.66667 2.9602 6.66667 2.49996C6.66667 2.03972 6.29357 1.66663 5.83333 1.66663C5.3731 1.66663 5 2.03972 5 2.49996C5 2.9602 5.3731 3.33329 5.83333 3.33329Z" stroke="#FDFDFD" stroke-width="1.25" stroke-linejoin="round"/>
<path d="M14.1667 3.33329C14.6269 3.33329 15 2.9602 15 2.49996C15 2.03972 14.6269 1.66663 14.1667 1.66663C13.7065 1.66663 13.3334 2.03972 13.3334 2.49996C13.3334 2.9602 13.7065 3.33329 14.1667 3.33329Z" stroke="#FDFDFD" stroke-width="1.25" stroke-linejoin="round"/>
<path d="M11.25 5.83337H8.75C6.39297 5.83337 5.21447 5.83337 4.48223 6.59086C3.75 7.34834 3.75 8.56746 3.75 11.0058C3.75 13.4441 3.75 14.6632 4.48223 15.4207C5.21447 16.1782 6.39297 16.1782 8.75 16.1782H9.60442C10.2641 16.1782 10.4968 16.3145 10.9514 16.8095C11.4542 17.357 12.2326 18.0875 12.9368 18.2576C13.9378 18.4995 14.0499 18.165 13.8266 17.211C13.763 16.9392 13.6043 16.5047 13.7717 16.2515C13.8654 16.1097 14.0216 16.0749 14.334 16.0051C14.8268 15.895 15.2332 15.7151 15.5177 15.4207C16.25 14.6632 16.25 13.4441 16.25 11.0058C16.25 8.56746 16.25 7.34834 15.5177 6.59086C14.7855 5.83337 13.607 5.83337 11.25 5.83337Z" stroke="#FDFDFD" stroke-width="1.25" stroke-linejoin="round"/>
<path d="M7.91663 12.5C8.39171 13.006 9.14804 13.3333 9.99996 13.3333C10.8519 13.3333 11.6082 13.006 12.0833 12.5" stroke="#FDFDFD" stroke-width="1.25" stroke-linecap="round" stroke-linejoin="round"/>
<path d="M7.50747 9.16663H7.5" stroke="#FDFDFD" stroke-width="1.66667" stroke-linecap="round" stroke-linejoin="round"/>
<path d="M12.5075 9.16663H12.5" stroke="#FDFDFD" stroke-width="1.66667" stroke-linecap="round" stroke-linejoin="round"/>
</svg>
