<svg width="44" height="44" viewBox="0 0 44 44" fill="none" xmlns="http://www.w3.org/2000/svg">
<g clip-path="url(#clip0_47_1313)">
<path d="M17.416 5.5H26.5827C27.312 5.5 28.0115 5.78973 28.5272 6.30546C29.043 6.82118 29.3327 7.52065 29.3327 8.25C29.3327 9.95181 28.6566 11.5839 27.4533 12.7873C26.2499 13.9906 24.6178 14.6667 22.916 14.6667H21.0827C19.3809 14.6667 17.7488 13.9906 16.5454 12.7873C15.3421 11.5839 14.666 9.95181 14.666 8.25C14.666 7.52065 14.9557 6.82118 15.4715 6.30546C15.9872 5.78973 16.6867 5.5 17.416 5.5Z" stroke="#1D9259" stroke-width="2" stroke-linecap="round" stroke-linejoin="round"/>
<path d="M7.33398 31.1665V29.3332C7.33398 25.4433 8.87922 21.7128 11.6298 18.9623C14.3803 16.2117 18.1108 14.6665 22.0007 14.6665C25.8905 14.6665 29.621 16.2117 32.3716 18.9623C35.1221 21.7128 36.6673 25.4433 36.6673 29.3332V31.1665C36.6673 33.1114 35.8947 34.9767 34.5194 36.352C33.1442 37.7272 31.2789 38.4998 29.334 38.4998H14.6673C12.7224 38.4998 10.8571 37.7272 9.48187 36.352C8.1066 34.9767 7.33398 33.1114 7.33398 31.1665Z" stroke="#1D9259" stroke-width="2" stroke-linecap="round" stroke-linejoin="round"/>
</g>
<defs>
<clipPath id="clip0_47_1313">
<rect width="44" height="44" fill="white"/>
</clipPath>
</defs>
</svg>
