<svg width="16" height="16" viewBox="0 0 16 16" fill="none" xmlns="http://www.w3.org/2000/svg">
<path d="M11.3334 7.86975C11.3334 7.63928 11.3334 7.52408 11.368 7.42141C11.4688 7.12301 11.7346 7.00728 12.0008 6.88601C12.3 6.74968 12.4496 6.68155 12.5979 6.66955C12.7662 6.65593 12.9348 6.69221 13.0787 6.77295C13.2694 6.87995 13.4024 7.08335 13.5386 7.24875C14.1676 8.01261 14.482 8.39461 14.597 8.81581C14.6899 9.15568 14.6899 9.51115 14.597 9.85101C14.4292 10.4653 13.899 10.9803 13.5066 11.457C13.3058 11.7008 13.2054 11.8227 13.0787 11.8939C12.9348 11.9746 12.7662 12.0109 12.5979 11.9973C12.4496 11.9853 12.3 11.9171 12.0008 11.7808C11.7346 11.6595 11.4688 11.5438 11.368 11.2454C11.3334 11.1427 11.3334 11.0275 11.3334 10.7971V7.86975Z" stroke="#E7ECF0" stroke-width="1.5"/>
<path d="M4.66671 7.86979C4.66671 7.57966 4.65856 7.31886 4.42398 7.11486C4.33866 7.04066 4.22554 6.98913 3.99931 6.88606C3.70005 6.7498 3.55041 6.68166 3.40215 6.66966C2.95731 6.63366 2.71799 6.93726 2.46146 7.24886C1.83254 8.01273 1.51808 8.39466 1.40301 8.81586C1.31016 9.15579 1.31016 9.51126 1.40301 9.85113C1.57084 10.4655 2.10105 10.9804 2.49351 11.4571C2.7409 11.7576 2.97722 12.0317 3.40215 11.9974C3.55041 11.9854 3.70005 11.9172 3.99931 11.7809C4.22554 11.6779 4.33866 11.6263 4.42398 11.5521C4.65856 11.3481 4.66671 11.0874 4.66671 10.7972V7.86979Z" stroke="#E7ECF0" stroke-width="1.5"/>
<path d="M13.3333 6.99992V5.99992C13.3333 3.42259 10.9455 1.33325 7.99996 1.33325C5.05444 1.33325 2.66663 3.42259 2.66663 5.99992V6.99992" stroke="#E7ECF0" stroke-width="1.5" stroke-linecap="round" stroke-linejoin="round"/>
<path d="M13.3333 11.6667C13.3333 14.6667 10.6667 14.6667 8 14.6667" stroke="#E7ECF0" stroke-width="1.5" stroke-linecap="round" stroke-linejoin="round"/>
</svg>
