<svg width="24" height="20" viewBox="0 0 24 20" fill="none" xmlns="http://www.w3.org/2000/svg">
    <path d="M12.2687 11.0361H18.8079C18.9473 11.0361 19.0131 11.0361 19.0231 10.8533C19.0766 10.1881 19.0766 9.519 19.0231 8.853C19.0231 8.72367 18.9589 8.67024 18.8187 8.67024H5.80462C5.64354 8.67024 5.60017 8.72367 5.60017 8.87468V10.789C5.60017 11.0361 5.60017 11.0361 5.85806 11.0361H12.2687ZM18.2929 6.43295C18.3115 6.38416 18.3115 6.33072 18.2929 6.28271C18.1837 6.04496 18.0543 5.81806 17.9041 5.60509C17.678 5.24112 17.4116 4.9058 17.108 4.60455C16.9647 4.42256 16.799 4.25916 16.6132 4.12054C15.6823 3.32831 14.5757 2.76763 13.3862 2.48574C12.786 2.35099 12.1727 2.28672 11.5578 2.29214H5.78216C5.62108 2.29214 5.5994 2.35641 5.5994 2.49658V6.31446C5.5994 6.47554 5.5994 6.51891 5.80385 6.51891H18.2154C18.2154 6.51891 18.3231 6.49722 18.3448 6.43295H18.2921H18.2929ZM18.2929 13.2734C18.1101 13.2532 17.9258 13.2532 17.743 13.2734H5.81546C5.65438 13.2734 5.60017 13.2734 5.60017 13.4887V17.2213C5.60017 17.3933 5.60017 17.4366 5.81546 17.4366H11.3223C11.5856 17.4568 11.8489 17.4382 12.1068 17.3832C12.906 17.3259 13.6921 17.1524 14.4417 16.8667C14.7143 16.7722 14.9776 16.6491 15.2262 16.5011H15.3013C16.5923 15.8297 17.6408 14.775 18.3022 13.4801C18.3022 13.4801 18.3773 13.3175 18.2929 13.2749V13.2734ZM3.43878 19.3719V19.3076V16.8016V15.9521V13.4244C3.43878 13.2842 3.43878 13.2633 3.26686 13.2633H0.932762C0.803435 13.2633 0.75 13.2633 0.75 13.0914V11.0477H3.24517C3.38457 11.0477 3.43878 11.0477 3.43878 10.8649V8.84293C3.43878 8.7136 3.43878 8.68185 3.26686 8.68185H0.932762C0.803435 8.68185 0.75 8.68185 0.75 8.50993V6.61726C0.75 6.49877 0.75 6.46702 0.921921 6.46702H3.23433C3.39541 6.46702 3.43878 6.46702 3.43878 6.26257V0.465288C3.43878 0.293368 3.43878 0.25 3.65406 0.25H11.7204C12.3059 0.273233 12.8874 0.337509 13.4628 0.443604C14.6485 0.662764 15.7876 1.08637 16.8292 1.69119C17.52 2.09776 18.1558 2.58874 18.7219 3.15406C19.1478 3.59626 19.5319 4.07485 19.8727 4.58441C20.2111 5.10095 20.4922 5.65311 20.7129 6.23005C20.74 6.38029 20.8841 6.48173 21.0343 6.45618H22.9595C23.2065 6.45618 23.2065 6.45618 23.2174 6.69315V8.45727C23.2174 8.62919 23.1531 8.67256 22.9804 8.67256H21.4959C21.3456 8.67256 21.3023 8.67256 21.3131 8.86616C21.372 9.52132 21.372 10.1788 21.3131 10.834C21.3131 11.0167 21.3131 11.0384 21.5183 11.0384H23.2166C23.2917 11.1352 23.2166 11.232 23.2166 11.3296C23.2275 11.4543 23.2275 11.5805 23.2166 11.7052V13.007C23.2166 13.1897 23.1632 13.2439 23.0013 13.2439H20.9685C20.8268 13.2168 20.6889 13.3074 20.6564 13.4484C20.1724 14.7068 19.398 15.8351 18.3974 16.7397C18.0319 17.0688 17.6478 17.3786 17.2466 17.6643C16.8161 17.9121 16.3971 18.17 15.9557 18.3745C15.1433 18.74 14.2915 19.0095 13.4171 19.1806C12.587 19.3293 11.7452 19.3967 10.9003 19.3851H3.43568V19.3742L3.43878 19.3719Z" fill="white"/>
</svg>
