<svg width="17" height="16" viewBox="0 0 17 16" fill="none" xmlns="http://www.w3.org/2000/svg" className="footer-icon">
  <path d="M2.08337 3.99992C2.08337 2.74284 2.08337 2.1143 2.4739 1.72378C2.86442 1.33325 3.49296 1.33325 4.75004 1.33325C6.00712 1.33325 6.63566 1.33325 7.02618 1.72378C7.41671 2.1143 7.41671 2.74284 7.41671 3.99992V5.33325C7.41671 6.59033 7.41671 7.21885 7.02618 7.60938C6.63566 7.99992 6.00712 7.99992 4.75004 7.99992C3.49296 7.99992 2.86442 7.99992 2.4739 7.60938C2.08337 7.21885 2.08337 6.59033 2.08337 5.33325V3.99992Z" stroke="currentColor"/>
  <path d="M2.08337 12.6667C2.08337 12.0455 2.08337 11.7349 2.18487 11.4898C2.32019 11.1631 2.57976 10.9035 2.90646 10.7682C3.15149 10.6667 3.46212 10.6667 4.08337 10.6667H5.41671C6.03796 10.6667 6.34859 10.6667 6.59362 10.7682C6.92032 10.9035 7.17989 11.1631 7.31521 11.4898C7.41671 11.7349 7.41671 12.0455 7.41671 12.6667C7.41671 13.288 7.41671 13.5986 7.31521 13.8437C7.17989 14.1703 6.92032 14.4299 6.59362 14.5653C6.34859 14.6667 6.03796 14.6667 5.41671 14.6667H4.08337C3.46212 14.6667 3.15149 14.6667 2.90646 14.5653C2.57976 14.4299 2.32019 14.1703 2.18487 13.8437C2.08337 13.5986 2.08337 13.288 2.08337 12.6667Z" stroke="currentColor"/>
  <path d="M10.0834 10.6667C10.0834 9.4096 10.0834 8.78107 10.4739 8.39053C10.8644 8 11.493 8 12.75 8C14.0071 8 14.6356 8 15.0262 8.39053C15.4167 8.78107 15.4167 9.4096 15.4167 10.6667V12C15.4167 13.2571 15.4167 13.8856 15.0262 14.2761C14.6356 14.6667 14.0071 14.6667 12.75 14.6667C11.493 14.6667 10.8644 14.6667 10.4739 14.2761C10.0834 13.8856 10.0834 13.2571 10.0834 12V10.6667Z" stroke="currentColor"/>
  <path d="M10.0834 3.33325C10.0834 2.712 10.0834 2.40137 10.1848 2.15634C10.3202 1.82964 10.5798 1.57007 10.9064 1.43475C11.1515 1.33325 11.4621 1.33325 12.0834 1.33325H13.4167C14.038 1.33325 14.3486 1.33325 14.5936 1.43475C14.9203 1.57007 15.1799 1.82964 15.3152 2.15634C15.4167 2.40137 15.4167 2.712 15.4167 3.33325C15.4167 3.95451 15.4167 4.26513 15.3152 4.51017C15.1799 4.83687 14.9203 5.09643 14.5936 5.23176C14.3486 5.33325 14.038 5.33325 13.4167 5.33325H12.0834C11.4621 5.33325 11.1515 5.33325 10.9064 5.23176C10.5798 5.09643 10.3202 4.83687 10.1848 4.51017C10.0834 4.26513 10.0834 3.95451 10.0834 3.33325Z" stroke="currentColor"/>
</svg>

