<svg width="21" height="20" viewBox="0 0 21 20" fill="none" xmlns="http://www.w3.org/2000/svg">
<path d="M12.3705 15.1391V10.6946M13.6726 10.6946V9.5835M13.6726 16.2502V15.1391M12.3705 12.9168H14.9746M14.9746 12.9168C15.4061 12.9168 15.7559 13.2899 15.7559 13.7502V14.3057C15.7559 14.766 15.4061 15.1391 14.9746 15.1391H11.5892M14.9746 12.9168C15.4061 12.9168 15.7559 12.5437 15.7559 12.0835V11.5279C15.7559 11.0677 15.4061 10.6946 14.9746 10.6946H11.5892" stroke="#83919F" stroke-width="1.25" stroke-linecap="round" stroke-linejoin="round"/>
<path d="M13.6685 7.5C10.6781 7.5 8.25385 9.92508 8.25385 12.9167C8.25385 15.9082 10.6781 18.3333 13.6685 18.3333C16.659 18.3333 19.0833 15.9082 19.0833 12.9167C19.0833 9.92508 16.659 7.5 13.6685 7.5Z" stroke="#83919F" stroke-width="1.25" stroke-linecap="round" stroke-linejoin="round"/>
<path d="M7.42074 4.99984C10.1811 4.99984 12.419 4.25365 12.419 3.33317C12.419 2.4127 10.1811 1.6665 7.42074 1.6665C4.66031 1.6665 2.42255 2.4127 2.42255 3.33317C2.42255 4.25365 4.66031 4.99984 7.42074 4.99984Z" stroke="#83919F" stroke-width="1.25" stroke-linecap="round"/>
<path d="M2.41669 3.3335V6.68492V10.0363C2.41669 10.6229 3.39923 11.3608 5.86027 11.6668M2.50613 7.12323C3.51035 8.0082 5.30076 8.38366 7.21423 8.38366M12.413 3.43461V5.11347" stroke="#83919F" stroke-width="1.25" stroke-linecap="round" stroke-linejoin="round"/>
<style>
    path {
        stroke: currentColor;
    }
</style>
</svg>