<svg width="16" height="17" viewBox="0 0 16 17" fill="none" xmlns="http://www.w3.org/2000/svg">
<path d="M3.8545 3.03795C4.28639 2.70546 4.50234 2.53922 4.7516 2.43215C4.86462 2.38361 4.98212 2.34439 5.10274 2.31494C5.36874 2.25 5.65081 2.25 6.21494 2.25H9.78441C10.3485 2.25 10.6306 2.25 10.8966 2.31494C11.0172 2.34439 11.1347 2.38361 11.2477 2.43215C11.497 2.53922 11.7129 2.70546 12.1449 3.03795C13.5759 4.13965 14.2915 4.69051 14.5368 5.40385C14.6459 5.72115 14.6867 6.05485 14.6569 6.38641C14.5898 7.1318 14.0249 7.814 12.8952 9.17833L10.2329 12.3935C9.20808 13.6312 8.69568 14.25 7.99968 14.25C7.30368 14.25 6.79128 13.6312 5.76646 12.3935L3.10415 9.17833C1.9744 7.814 1.40952 7.1318 1.34248 6.38641C1.31266 6.05485 1.35344 5.72115 1.46254 5.40385C1.70784 4.69051 2.42339 4.13965 3.8545 3.03795Z" stroke="#83919F"/>
<path d="M6.66699 5.91675H9.33366" stroke="#83919F" stroke-linecap="round" stroke-linejoin="round"/>
</svg>
