<svg width="20" height="20" viewBox="0 0 20 20" fill="none" xmlns="http://www.w3.org/2000/svg">
<path d="M12.639 0.83313L13.1372 1.76461C13.4741 2.39435 13.6425 2.70923 13.5312 2.84408C13.4198 2.97893 13.053 2.87002 12.3193 2.6522C11.5858 2.43443 10.807 2.31726 10 2.31726C5.62778 2.31726 2.08337 5.75685 2.08337 9.99983C2.08337 11.3991 2.46889 12.7111 3.14248 13.8411M7.36115 19.1665L6.86284 18.235C6.52594 17.6053 6.35749 17.2903 6.46887 17.1555C6.58027 17.0207 6.94712 17.1296 7.68078 17.3474C8.41429 17.5652 9.19304 17.6823 10 17.6823C14.3723 17.6823 17.9167 14.2428 17.9167 9.99983C17.9167 8.6005 17.5312 7.28853 16.8576 6.15853" stroke="#FDFDFD" stroke-width="1.25" stroke-linecap="round" stroke-linejoin="round"/>
</svg>
