<svg width="16" height="16" viewBox="0 0 16 16" fill="none" xmlns="http://www.w3.org/2000/svg">
<path d="M10.3337 8.00008C10.3337 9.28875 9.28899 10.3334 8.00033 10.3334C6.71166 10.3334 5.66699 9.28875 5.66699 8.00008C5.66699 6.71141 6.71166 5.66675 8.00033 5.66675C9.28899 5.66675 10.3337 6.71141 10.3337 8.00008Z" stroke="#83919F"/>
<path d="M14.007 9.39763C14.3549 9.30383 14.5289 9.2569 14.5976 9.16716C14.6663 9.0775 14.6663 8.93316 14.6663 8.64456V7.35543C14.6663 7.06683 14.6663 6.9225 14.5976 6.83283C14.5289 6.7431 14.3549 6.69616 14.007 6.60235C12.7067 6.25169 11.8929 4.8923 12.2285 3.60054C12.3208 3.24529 12.3669 3.06767 12.3229 2.96349C12.2788 2.85931 12.1524 2.78752 11.8995 2.64394L10.7497 1.99112C10.5015 1.85022 10.3775 1.77978 10.2661 1.79478C10.1547 1.80978 10.0291 1.93512 9.77781 2.18578C8.80501 3.15628 7.19541 3.15624 6.22257 2.18572C5.97129 1.93505 5.84566 1.80972 5.73429 1.79471C5.62293 1.77971 5.49885 1.85016 5.25069 1.99105L4.1009 2.64388C3.84803 2.78745 3.72159 2.85924 3.67753 2.9634C3.63346 3.06756 3.67959 3.24521 3.77184 3.6005C4.10725 4.8923 3.29282 6.25172 1.99235 6.60236C1.64442 6.69616 1.47045 6.7431 1.40173 6.83276C1.33301 6.9225 1.33301 7.06683 1.33301 7.35543V8.64456C1.33301 8.93316 1.33301 9.0775 1.40173 9.16716C1.47044 9.2569 1.64441 9.30383 1.99235 9.39763C3.29261 9.7483 4.10639 11.1077 3.77082 12.3994C3.67853 12.7547 3.63239 12.9323 3.67645 13.0365C3.72051 13.1407 3.84695 13.2125 4.09984 13.356L5.24964 14.0089C5.49781 14.1498 5.6219 14.2202 5.73327 14.2052C5.84465 14.1902 5.97026 14.0648 6.22148 13.8142C7.19481 12.8429 8.80554 12.8428 9.77894 13.8141C10.0301 14.0648 10.1557 14.1902 10.2671 14.2052C10.3785 14.2202 10.5026 14.1497 10.7507 14.0088L11.9005 13.356C12.1535 13.2124 12.2799 13.1406 12.3239 13.0364C12.368 12.9322 12.3219 12.7546 12.2295 12.3994C11.8938 11.1077 12.7069 9.74836 14.007 9.39763Z" stroke="#83919F" stroke-linecap="round"/>
</svg>
