<svg width="288" height="39" viewBox="0 0 280 39" fill="none" xmlns="http://www.w3.org/2000/svg">
<path d="M12.6001 27.5999H23.9695L26.1097 23.3999H33.6001" stroke="url(#paint0_linear_67_1868)" stroke-width="1.4"/>
<g clip-path="url(#clip0_67_1868)">
</g>
<rect x="6.6498" y="24.4501" width="6.3" height="6.3" rx="3.15" stroke="url(#paint1_linear_67_1868)" stroke-width="0.7"/>
<path d="M4.8999 17.8H8.98109L10.9559 21.3H18.9866L20.9614 18.5242H33.4683H33.5999" stroke="url(#paint2_linear_67_1868)" stroke-width="1.4"/>
<rect x="0.35" y="15.35" width="4.9" height="4.9" rx="2.45" stroke="url(#paint3_linear_67_1868)" stroke-width="0.7"/>
<path d="M19.6001 12.8999H33.6001" stroke="url(#paint4_linear_67_1868)" stroke-width="1.4"/>
<rect x="13.6498" y="9.7499" width="6.3" height="6.3" rx="3.15" stroke="url(#paint5_linear_67_1868)" stroke-width="0.7"/>
<path d="M11.8999 3.80005H17.644L20.0693 8.00005H33.5999" stroke="url(#paint6_linear_67_1868)" stroke-width="1.4"/>
<g clip-path="url(#clip1_67_1868)">
</g>
<rect x="7.35" y="1.35" width="4.9" height="4.9" rx="2.45" stroke="url(#paint7_linear_67_1868)" stroke-width="0.7"/>
<path d="M46.9014 3.89844C46.8232 3.86719 46.7295 3.8125 46.6201 3.73438C46.5107 3.65625 46.3545 3.58594 46.1514 3.52344C45.9482 3.44531 45.6904 3.38281 45.3779 3.33594C45.0654 3.28906 44.667 3.28125 44.1826 3.3125V0.945312C44.8701 0.960937 45.5654 1.03906 46.2686 1.17969C46.9873 1.30469 47.5654 1.50781 48.0029 1.78906C47.9092 1.99219 47.7998 2.21875 47.6748 2.46875C47.5498 2.70312 47.4326 2.92969 47.3232 3.14844C47.2139 3.35156 47.1201 3.52344 47.042 3.66406C46.9639 3.80469 46.917 3.88281 46.9014 3.89844ZM38.8154 5.77344C38.8154 5.08594 38.9326 4.46875 39.167 3.92188C39.4014 3.375 39.7139 2.89844 40.1045 2.49219C40.5107 2.07031 40.9795 1.74219 41.5107 1.50781C42.0576 1.25781 42.6279 1.09375 43.2217 1.01562V3.47656C42.7217 3.64844 42.3076 3.95312 41.9795 4.39062C41.6514 4.8125 41.4873 5.24219 41.4873 5.67969C41.4873 6.28906 41.6514 6.78125 41.9795 7.15625C42.3076 7.53125 42.7217 7.85938 43.2217 8.14062V10.8125C42.7061 10.5625 42.1904 10.2969 41.6748 10.0156C41.1592 9.71875 40.6904 9.375 40.2686 8.98438C39.8467 8.59375 39.4951 8.14062 39.2139 7.625C38.9482 7.10938 38.8154 6.49219 38.8154 5.77344ZM39.1904 15.3359C39.4092 15.4609 39.6826 15.5859 40.0107 15.7109C40.3545 15.8203 40.7061 15.9297 41.0654 16.0391C41.4248 16.1328 41.7842 16.2109 42.1436 16.2734C42.5029 16.3359 42.8389 16.3672 43.1514 16.3672H43.2217V18.5938H43.1748C42.7998 18.5938 42.4092 18.5703 42.0029 18.5234C41.6123 18.4922 41.2139 18.4297 40.8076 18.3359C40.4014 18.2422 40.0107 18.1172 39.6357 17.9609C39.2764 17.7891 38.9639 17.5859 38.6982 17.3516L39.1904 15.3359ZM44.1826 8.60938C44.6982 8.84375 45.2217 9.09375 45.7529 9.35938C46.2998 9.625 46.792 9.95312 47.2295 10.3438C47.667 10.7188 48.0264 11.1797 48.3076 11.7266C48.5889 12.2734 48.7295 12.9531 48.7295 13.7656C48.7295 14.3281 48.6201 14.875 48.4014 15.4062C48.1982 15.9375 47.9014 16.4219 47.5107 16.8594C47.1357 17.2812 46.667 17.6406 46.1045 17.9375C45.542 18.2344 44.9014 18.4297 44.1826 18.5234V16.2734C45.4639 15.9609 46.1045 15.1094 46.1045 13.7188C46.1045 13.1719 45.9248 12.7188 45.5654 12.3594C45.2061 12 44.7451 11.6641 44.1826 11.3516V8.60938ZM54.0732 5.28125L54.3779 6.61719V23.7031H51.5186V5.28125H54.0732ZM63.0732 9.28906C63.2607 10.0078 63.3545 10.8125 63.3545 11.7031C63.3545 12.5938 63.2451 13.4609 63.0264 14.3047C62.8232 15.1328 62.5029 15.8672 62.0654 16.5078C61.6436 17.1484 61.1045 17.6641 60.4482 18.0547C59.8076 18.4297 59.0498 18.6172 58.1748 18.6172C57.6279 18.6172 57.1045 18.5547 56.6045 18.4297C56.1201 18.3047 55.6982 18.1406 55.3389 17.9375V15.5C55.8545 16.1094 56.4873 16.4141 57.2373 16.4141C57.7061 16.4141 58.1279 16.2969 58.5029 16.0625C58.8936 15.8281 59.2217 15.5156 59.4873 15.125C59.7686 14.7188 59.9873 14.2422 60.1436 13.6953C60.2998 13.1328 60.3779 12.5391 60.3779 11.9141C60.3779 11.3047 60.3076 10.7266 60.167 10.1797C60.0264 9.63281 59.8232 9.14844 59.5576 8.72656C59.3076 8.30469 58.9951 7.96875 58.6201 7.71875C58.2607 7.46875 57.8389 7.34375 57.3545 7.34375C56.9482 7.34375 56.5732 7.42969 56.2295 7.60156C55.9014 7.75781 55.6045 7.98438 55.3389 8.28125V5.79688C55.6982 5.59375 56.0967 5.4375 56.5342 5.32812C56.9717 5.21875 57.4248 5.16406 57.8936 5.16406C58.4092 5.16406 58.9326 5.23438 59.4639 5.375C59.9951 5.51562 60.4873 5.75 60.9404 6.07812C61.4092 6.40625 61.8311 6.83594 62.2061 7.36719C62.5811 7.89844 62.8701 8.53906 63.0732 9.28906ZM72.7295 5.21094C73.5889 5.25781 74.3701 5.46875 75.0732 5.84375C75.7764 6.20312 76.3623 6.6875 76.8311 7.29688C77.3154 7.89062 77.6904 8.58594 77.9561 9.38281C78.2217 10.1797 78.3545 11.0312 78.3545 11.9375C78.3545 12.8438 78.2139 13.6953 77.9326 14.4922C77.667 15.2734 77.292 15.9609 76.8076 16.5547C76.3232 17.1328 75.7295 17.6016 75.0264 17.9609C74.3232 18.3203 73.5576 18.5312 72.7295 18.5938V16.3438C73.5107 16.1719 74.1436 15.6797 74.6279 14.8672C75.1279 14.0547 75.3779 13.0781 75.3779 11.9375C75.3779 11.3594 75.3154 10.8203 75.1904 10.3203C75.0811 9.80469 74.9092 9.34375 74.6748 8.9375C74.4404 8.53125 74.1592 8.19531 73.8311 7.92969C73.5029 7.66406 73.1357 7.49219 72.7295 7.41406V5.21094ZM66.1904 11.8906C66.1904 10.9844 66.3232 10.1406 66.5889 9.35938C66.8545 8.57812 67.2295 7.89844 67.7139 7.32031C68.2139 6.72656 68.8076 6.25 69.4951 5.89062C70.1826 5.53125 70.9404 5.3125 71.7686 5.23438V7.41406C70.9873 7.58594 70.3623 8.07812 69.8936 8.89062C69.4248 9.70312 69.1904 10.6797 69.1904 11.8203C69.1904 12.3984 69.2451 12.9453 69.3545 13.4609C69.4795 13.9766 69.6514 14.4375 69.8701 14.8438C70.0889 15.25 70.3545 15.5859 70.667 15.8516C70.9951 16.1172 71.3623 16.2812 71.7686 16.3438V18.5938C70.9092 18.5312 70.1357 18.3203 69.4482 17.9609C68.7607 17.5859 68.1748 17.1016 67.6904 16.5078C67.2061 15.9141 66.8311 15.2188 66.5654 14.4219C66.3154 13.625 66.1904 12.7812 66.1904 11.8906ZM85.8076 14.4922C85.8076 15.0234 85.8779 15.4375 86.0186 15.7344C86.1592 16.0312 86.3545 16.2578 86.6045 16.4141C86.8701 16.5703 87.1592 16.6719 87.4717 16.7188C87.7998 16.75 88.1436 16.7656 88.5029 16.7656V18.5C88.2998 18.5312 88.0967 18.5547 87.8936 18.5703C87.7217 18.5859 87.5107 18.5938 87.2607 18.5938C87.0264 18.6094 86.792 18.6172 86.5576 18.6172C86.3232 18.6172 86.0811 18.6094 85.8311 18.5938C85.5967 18.5781 85.3936 18.5547 85.2217 18.5234C84.6904 18.4297 84.2764 18.2031 83.9795 17.8438C83.6826 17.4688 83.4561 17.0625 83.2998 16.625C83.1592 16.1719 83.0654 15.7344 83.0186 15.3125C82.9873 14.8906 82.9717 14.5625 82.9717 14.3281V7.20312H81.2373V5.28125H82.9717V1.53125H85.8076V5.28125H87.917V7.20312H85.8076V14.4922ZM94.3623 5.28125L94.667 6.61719V18.5H91.8311V5.28125H94.3623ZM101.675 6.73438C101.94 7 102.144 7.3125 102.284 7.67188C102.44 8.01562 102.55 8.38281 102.612 8.77344C102.69 9.14844 102.737 9.53125 102.753 9.92188C102.769 10.3125 102.776 10.6953 102.776 11.0703V18.0312V18.5H99.917V11.3047C99.917 10.7734 99.8936 10.2656 99.8467 9.78125C99.7998 9.29688 99.6904 8.86719 99.5186 8.49219C99.3467 8.11719 99.1123 7.82812 98.8154 7.625C98.5186 7.40625 98.1045 7.29688 97.5732 7.29688C97.3545 7.29688 97.0576 7.33594 96.6826 7.41406C96.3232 7.47656 95.9717 7.58594 95.6279 7.74219V5.9375C96.0498 5.71875 96.5029 5.53125 96.9873 5.375C97.4873 5.21875 97.9717 5.14062 98.4404 5.14062C99.1436 5.14062 99.7373 5.28906 100.222 5.58594C100.706 5.86719 101.19 6.25 101.675 6.73438ZM112.831 5.16406C113.675 5.24219 114.433 5.46875 115.104 5.84375C115.792 6.21875 116.378 6.70312 116.862 7.29688C117.347 7.89062 117.714 8.57031 117.964 9.33594C118.229 10.1016 118.362 10.8984 118.362 11.7266C118.362 12.1016 118.339 12.4766 118.292 12.8516H110.253V10.7891H115.667C115.667 10.3828 115.597 9.99219 115.456 9.61719C115.331 9.24219 115.136 8.89844 114.87 8.58594C114.62 8.25781 114.323 7.98438 113.979 7.76562C113.636 7.54688 113.253 7.41406 112.831 7.36719V5.16406ZM112.737 16.2969C112.909 16.2969 113.12 16.2812 113.37 16.25C113.636 16.2031 113.909 16.1328 114.19 16.0391C114.487 15.9297 114.776 15.7969 115.058 15.6406C115.354 15.4844 115.612 15.2969 115.831 15.0781L116.862 16.6484C116.347 17.2891 115.745 17.7734 115.058 18.1016C114.37 18.4297 113.495 18.5938 112.433 18.5938C111.573 18.5938 110.769 18.4219 110.019 18.0781C109.269 17.7188 108.628 17.2344 108.097 16.625C107.565 16.0156 107.144 15.3047 106.831 14.4922C106.519 13.6797 106.362 12.8047 106.362 11.8672C106.362 10.9766 106.503 10.1328 106.784 9.33594C107.081 8.53906 107.479 7.84375 107.979 7.25C108.479 6.64062 109.058 6.14844 109.714 5.77344C110.386 5.39844 111.104 5.1875 111.87 5.14062V7.39062C111.292 7.5 110.815 7.73438 110.44 8.09375C110.065 8.45312 109.769 8.86719 109.55 9.33594C109.347 9.78906 109.198 10.2578 109.104 10.7422C109.026 11.2266 108.987 11.6406 108.987 11.9844C108.987 12.5938 109.058 13.1641 109.198 13.6953C109.354 14.2109 109.589 14.6641 109.901 15.0547C110.214 15.4297 110.597 15.7344 111.05 15.9688C111.519 16.1875 112.081 16.2969 112.737 16.2969ZM126.026 14.4922C126.026 15.0234 126.097 15.4375 126.237 15.7344C126.378 16.0312 126.573 16.2578 126.823 16.4141C127.089 16.5703 127.378 16.6719 127.69 16.7188C128.019 16.75 128.362 16.7656 128.722 16.7656V18.5C128.519 18.5312 128.315 18.5547 128.112 18.5703C127.94 18.5859 127.729 18.5938 127.479 18.5938C127.245 18.6094 127.011 18.6172 126.776 18.6172C126.542 18.6172 126.3 18.6094 126.05 18.5938C125.815 18.5781 125.612 18.5547 125.44 18.5234C124.909 18.4297 124.495 18.2031 124.198 17.8438C123.901 17.4688 123.675 17.0625 123.519 16.625C123.378 16.1719 123.284 15.7344 123.237 15.3125C123.206 14.8906 123.19 14.5625 123.19 14.3281V7.20312H121.456V5.28125H123.19V1.53125H126.026V5.28125H128.136V7.20312H126.026V14.4922Z" fill="#FDFDFD"/>
<rect x="102.8" y="22.5" width="28" height="16" rx="4" fill="#E01DEE"/>
<path d="M110.376 30.644C110.674 30.6973 110.928 30.8547 111.136 31.116C111.344 31.3773 111.448 31.6733 111.448 32.004C111.448 32.2867 111.373 32.5427 111.224 32.772C111.08 32.996 110.869 33.1747 110.592 33.308C110.314 33.436 109.992 33.5 109.624 33.5H107.4V27.94H109.52C109.898 27.94 110.224 28.004 110.496 28.132C110.768 28.26 110.973 28.4333 111.112 28.652C111.25 28.8653 111.32 29.1053 111.32 29.372C111.32 29.692 111.234 29.9587 111.064 30.172C110.893 30.3853 110.664 30.5427 110.376 30.644ZM108.312 30.276H109.44C109.738 30.276 109.97 30.2093 110.136 30.076C110.306 29.9373 110.392 29.74 110.392 29.484C110.392 29.2333 110.306 29.0387 110.136 28.9C109.97 28.756 109.738 28.684 109.44 28.684H108.312V30.276ZM109.544 32.756C109.853 32.756 110.096 32.6813 110.272 32.532C110.448 32.3827 110.536 32.1747 110.536 31.908C110.536 31.636 110.442 31.42 110.256 31.26C110.069 31.1 109.821 31.02 109.512 31.02H108.312V32.756H109.544ZM113.351 28.676V30.308H115.271V31.052H113.351V32.756H115.511V33.5H112.439V27.932H115.511V28.676H113.351ZM120.226 27.94V28.684H118.746V33.5H117.834V28.684H116.346V27.94H120.226ZM124.502 32.364H122.174L121.774 33.5H120.822L122.814 27.932H123.87L125.862 33.5H124.902L124.502 32.364ZM124.246 31.62L123.342 29.036L122.43 31.62H124.246Z" fill="#FDFDFD"/>
<defs>
<linearGradient id="paint0_linear_67_1868" x1="12.546" y1="27.3563" x2="21.2543" y2="14.4414" gradientUnits="userSpaceOnUse">
<stop offset="0.155" stop-color="#E01DEE"/>
<stop offset="1" stop-color="#62D1FC"/>
</linearGradient>
<linearGradient id="paint1_linear_67_1868" x1="6.28176" y1="30.6941" x2="14.818" y2="28.1622" gradientUnits="userSpaceOnUse">
<stop stop-color="white"/>
<stop offset="0.0001" stop-color="#E01DEE"/>
<stop offset="1" stop-color="#62D1FC"/>
</linearGradient>
<linearGradient id="paint2_linear_67_1868" x1="4.82593" y1="21.0971" x2="10.332" y2="7.7052" gradientUnits="userSpaceOnUse">
<stop stop-color="white"/>
<stop offset="0.135" stop-color="#E01DEE"/>
<stop offset="1" stop-color="#62D1FC"/>
</linearGradient>
<linearGradient id="paint3_linear_67_1868" x1="-0.0144338" y1="20.2752" x2="6.81457" y2="18.2497" gradientUnits="userSpaceOnUse">
<stop stop-color="white"/>
<stop offset="0.135" stop-color="#E01DEE"/>
<stop offset="1" stop-color="#62D1FC"/>
</linearGradient>
<linearGradient id="paint4_linear_67_1868" x1="19.564" y1="13.8419" x2="20.5822" y2="9.61403" gradientUnits="userSpaceOnUse">
<stop stop-color="white"/>
<stop offset="0.135" stop-color="#E01DEE"/>
<stop offset="1" stop-color="#62D1FC"/>
</linearGradient>
<linearGradient id="paint5_linear_67_1868" x1="13.2818" y1="15.9939" x2="21.818" y2="13.462" gradientUnits="userSpaceOnUse">
<stop stop-color="white"/>
<stop offset="0.135" stop-color="#E01DEE"/>
<stop offset="1" stop-color="#62D1FC"/>
</linearGradient>
<linearGradient id="paint6_linear_67_1868" x1="11.844" y1="7.75648" x2="20.442" y2="-5.41984" gradientUnits="userSpaceOnUse">
<stop stop-color="white"/>
<stop offset="0.135" stop-color="#E01DEE"/>
<stop offset="1" stop-color="#62D1FC"/>
</linearGradient>
<linearGradient id="paint7_linear_67_1868" x1="6.98557" y1="6.27524" x2="13.8146" y2="4.24969" gradientUnits="userSpaceOnUse">
<stop stop-color="white"/>
<stop offset="0.135" stop-color="#E01DEE"/>
<stop offset="1" stop-color="#62D1FC"/>
</linearGradient>
<clipPath id="clip0_67_1868">
<rect x="6.2998" y="24.1001" width="7" height="7" rx="3.5" fill="white"/>
</clipPath>
<clipPath id="clip1_67_1868">
<rect x="7" y="1" width="5.6" height="5.6" rx="2.8" fill="white"/>
</clipPath>
</defs>
</svg>
