<svg width="20" height="20" viewBox="0 0 20 20" fill="none" xmlns="http://www.w3.org/2000/svg">
<path d="M2.08337 10C2.08337 6.26809 2.08337 4.40212 3.24274 3.24274C4.40212 2.08337 6.26809 2.08337 10 2.08337C13.732 2.08337 15.598 2.08337 16.7574 3.24274C17.9167 4.40212 17.9167 6.26809 17.9167 10C17.9167 13.732 17.9167 15.598 16.7574 16.7574C15.598 17.9167 13.732 17.9167 10 17.9167C6.26809 17.9167 4.40212 17.9167 3.24274 16.7574C2.08337 15.598 2.08337 13.732 2.08337 10Z" stroke="#FDFDFD" stroke-width="1.25"/>
<path d="M9.16663 5.83337H14.1666" stroke="#FDFDFD" stroke-width="1.25" stroke-linecap="round"/>
<path d="M5.83337 5.83337H6.66671" stroke="#FDFDFD" stroke-width="1.25" stroke-linecap="round"/>
<path d="M5.83337 10H6.66671" stroke="#FDFDFD" stroke-width="1.25" stroke-linecap="round"/>
<path d="M5.83337 14.1666H6.66671" stroke="#FDFDFD" stroke-width="1.25" stroke-linecap="round"/>
<path d="M9.16663 10H14.1666" stroke="#FDFDFD" stroke-width="1.25" stroke-linecap="round"/>
<path d="M9.16663 14.1666H14.1666" stroke="#FDFDFD" stroke-width="1.25" stroke-linecap="round"/>
</svg>
