<svg width="18" height="19" viewBox="0 0 18 19" fill="none" xmlns="http://www.w3.org/2000/svg">
<path fill-rule="evenodd" clip-rule="evenodd" d="M2.45529 7.06759C1.09952 10.6673 2.96948 14.7344 6.61584 16.0432C6.75609 16.1368 6.89633 16.3237 6.89633 16.464V17.1185C6.89633 17.212 6.89633 17.2588 6.84955 17.3054C6.80287 17.4925 6.61584 17.5859 6.42881 17.4925C3.81095 16.651 1.80074 14.6408 0.959273 12.0229C-0.443173 7.58189 1.98777 2.86025 6.42881 1.45781C6.4756 1.41113 6.56906 1.41113 6.61584 1.41113C6.80287 1.45781 6.89633 1.59805 6.89633 1.78508V2.43952C6.89633 2.67333 6.80287 2.81358 6.61584 2.90704C4.6992 3.60826 3.15651 5.10417 2.45529 7.06759ZM11.1505 1.64484C11.1971 1.45781 11.3842 1.36435 11.5712 1.45781C14.1423 2.29927 16.1993 4.30948 17.0407 6.97413C18.4432 11.4152 16.0122 16.1368 11.5712 17.5393C11.5244 17.5859 11.4309 17.5859 11.3842 17.5859C11.1971 17.5393 11.1037 17.399 11.1037 17.212V16.5575C11.1037 16.3237 11.1971 16.1835 11.3842 16.09C13.3008 15.3888 14.8435 13.8929 15.5447 11.9295C16.9005 8.32979 15.0305 4.2627 11.3842 2.95382C11.2439 2.86025 11.1037 2.67333 11.1037 2.4863V1.83187C11.1037 1.7383 11.1037 1.69162 11.1505 1.64484ZM9.13909 8.70354C11.1025 8.93725 12.0842 9.49823 12.0842 11.1344C12.0842 12.3966 11.1493 13.3783 9.74684 13.6121V14.7341C9.70006 14.9678 9.55981 15.108 9.37279 15.108H8.67157C8.43787 15.0612 8.29763 14.921 8.29763 14.7341V13.6121C6.75496 13.3783 6.00696 12.5368 5.82005 11.3682V11.3214C5.82005 11.1344 5.96029 10.9941 6.1472 10.9941H6.94199C7.08223 10.9941 7.22247 11.0877 7.26915 11.2746C7.40939 11.9759 7.83012 12.4902 9.04563 12.4902C9.93376 12.4902 10.5883 11.976 10.5883 11.228C10.5883 10.4799 10.1676 10.1995 8.8586 9.96575C6.8952 9.73193 5.96029 9.12428 5.96029 7.58158C5.96029 6.41283 6.84842 5.4779 8.25084 5.29087V4.2157C8.29763 3.98188 8.43787 3.84163 8.6249 3.84163H9.32611C9.55981 3.88842 9.70006 4.02867 9.70006 4.2157V5.33766C10.7752 5.43112 11.6167 6.2258 11.8037 7.2543V7.30109C11.8037 7.48801 11.6635 7.62825 11.4764 7.62825H10.7285C10.5883 7.62825 10.4481 7.53479 10.4013 7.39455C10.1676 6.69332 9.70006 6.41283 8.8586 6.41283C7.92369 6.41283 7.45617 6.83346 7.45617 7.48801C7.45617 8.14256 7.73666 8.51651 9.13909 8.70354Z" fill="#F0F0F0"/>
</svg>
