<svg xmlns="http://www.w3.org/2000/svg" viewBox="0 0 74 74" fill="none">
    <path fill-rule="evenodd" clip-rule="evenodd" d="M36.244 19.6937C36.8676 14.7935 36.8679 8.46059 36.8679 0H37.1321C37.1321 8.46059 37.1324 14.7935 37.756 19.6937C38.3792 24.5905 39.6229 28.038 42.0967 30.7377C42.4681 31.143 42.857 31.5319 43.2623 31.9033C45.962 34.3771 49.4095 35.6208 54.3063 36.244C59.2065 36.8676 65.5394 36.8679 74 36.8679V37.1321C65.5394 37.1321 59.2065 37.1324 54.3063 37.756C49.4095 38.3792 45.962 39.6229 43.2623 42.0967C42.857 42.4681 42.4681 42.857 42.0967 43.2623C39.6229 45.962 38.3792 49.4095 37.756 54.3063C37.1324 59.2065 37.1321 65.5394 37.1321 74H36.8679C36.8679 65.5394 36.8676 59.2065 36.244 54.3063C35.6208 49.4095 34.3771 45.962 31.9033 43.2623C31.5319 42.857 31.143 42.4681 30.7377 42.0967C28.038 39.6229 24.5905 38.3792 19.6937 37.756C14.7935 37.1324 8.46059 37.1321 0 37.1321V36.8679C8.46059 36.8679 14.7935 36.8676 19.6937 36.244C24.5905 35.6208 28.038 34.3771 30.7377 31.9033C31.143 31.5319 31.5319 31.143 31.9033 30.7377C34.3771 28.038 35.6208 24.5905 36.244 19.6937ZM13.0103 37C15.5129 37.0898 17.7371 37.2406 19.7271 37.4938C24.6512 38.1205 28.1601 39.3763 30.9162 41.9018C31.3272 42.2784 31.7216 42.6728 32.0982 43.0838C34.6237 45.8399 35.8795 49.3488 36.5062 54.2729C36.7594 56.2629 36.9102 58.4871 37 60.9897C37.0898 58.4871 37.2406 56.2629 37.4938 54.2729C38.1205 49.3488 39.3763 45.8399 41.9018 43.0838C42.2784 42.6728 42.6728 42.2784 43.0838 41.9018C45.8399 39.3763 49.3488 38.1205 54.2729 37.4938C56.2629 37.2406 58.4871 37.0898 60.9897 37C58.4871 36.9102 56.2629 36.7594 54.2729 36.5062C49.3488 35.8795 45.8399 34.6237 43.0838 32.0982C42.6728 31.7216 42.2784 31.3272 41.9018 30.9162C39.3763 28.1601 38.1205 24.6512 37.4938 19.7271C37.2406 17.7371 37.0898 15.5129 37 13.0103C36.9102 15.5129 36.7594 17.7371 36.5062 19.7271C35.8795 24.6512 34.6237 28.1601 32.0982 30.9162C31.7216 31.3272 31.3272 31.7216 30.9162 32.0982C28.1601 34.6237 24.6512 35.8795 19.7271 36.5062C17.7371 36.7594 15.5129 36.9102 13.0103 37Z" fill="#D0F5FF"/>
    <path d="M19.7271 37.4938C17.7371 37.2406 15.5129 37.0898 13.0103 37C15.5129 36.9102 17.7371 36.7594 19.7271 36.5062C24.6512 35.8795 28.1601 34.6237 30.9162 32.0982C31.3272 31.7216 31.7216 31.3272 32.0982 30.9162C34.6237 28.1601 35.8795 24.6512 36.5062 19.7271C36.7594 17.7371 36.9102 15.5129 37 13.0103C37.0898 15.5129 37.2406 17.7371 37.4938 19.7271C38.1205 24.6512 39.3763 28.1601 41.9018 30.9162C42.2784 31.3272 42.6728 31.7216 43.0838 32.0982C45.8399 34.6237 49.3488 35.8795 54.2729 36.5062C56.2629 36.7594 58.4871 36.9102 60.9897 37C58.4871 37.0898 56.2629 37.2406 54.2729 37.4938C49.3488 38.1205 45.8399 39.3763 43.0838 41.9018C42.6728 42.2784 42.2784 42.6728 41.9018 43.0838C39.3763 45.8399 38.1205 49.3488 37.4938 54.2729C37.2406 56.2629 37.0898 58.4871 37 60.9897C36.9102 58.4871 36.7594 56.2629 36.5062 54.2729C35.8795 49.3488 34.6237 45.8399 32.0982 43.0838C31.7216 42.6728 31.3272 42.2784 30.9162 41.9018C28.1601 39.3763 24.6512 38.1205 19.7271 37.4938Z" fill="#D0F5FF"/>
</svg>