<svg width="66" height="66" viewBox="0 0 66 66" fill="none" xmlns="http://www.w3.org/2000/svg">
<path fill-rule="evenodd" clip-rule="evenodd" d="M32.3257 17.5647C32.8819 13.1942 32.8821 7.54593 32.8821 0H33.1179C33.1179 7.54593 33.1181 13.1942 33.6743 17.5647C34.2301 21.9321 35.3394 25.0069 37.5457 27.4147C37.8769 27.7762 38.2238 28.1231 38.5853 28.4543C40.9931 30.6607 44.0679 31.7699 48.4353 32.3257C52.8058 32.8819 58.4541 32.8821 66 32.8821V33.1179C58.4541 33.1179 52.8058 33.1181 48.4353 33.6743C44.0679 34.2301 40.9931 35.3394 38.5853 37.5457C38.2238 37.8769 37.8769 38.2238 37.5457 38.5853C35.3394 40.9931 34.2301 44.0679 33.6743 48.4353C33.1181 52.8058 33.1179 58.4541 33.1179 66H32.8821C32.8821 58.4541 32.8819 52.8058 32.3257 48.4353C31.7699 44.0679 30.6607 40.9931 28.4543 38.5853C28.1231 38.2238 27.7762 37.8769 27.4147 37.5457C25.0069 35.3394 21.9321 34.2301 17.5647 33.6743C13.1942 33.1181 7.54593 33.1179 0 33.1179V32.8821C7.54593 32.8821 13.1942 32.8819 17.5647 32.3257C21.9321 31.7699 25.0069 30.6607 27.4147 28.4543C27.7762 28.1231 28.1231 27.7762 28.4543 27.4147C30.6607 25.0069 31.7699 21.9321 32.3257 17.5647ZM11.6038 33C13.8358 33.0801 15.8196 33.2146 17.5944 33.4404C21.9862 33.9993 25.1158 35.1194 27.5739 37.3719C27.9405 37.7078 28.2922 38.0595 28.6281 38.4261C30.8806 40.8842 32.0007 44.0138 32.5596 48.4056C32.7854 50.1804 32.9199 52.1642 33 54.3962C33.0801 52.1642 33.2146 50.1804 33.4404 48.4056C33.9993 44.0138 35.1194 40.8842 37.3719 38.4261C37.7078 38.0595 38.0595 37.7078 38.4261 37.3719C40.8842 35.1194 44.0138 33.9993 48.4056 33.4404C50.1804 33.2146 52.1642 33.0801 54.3962 33C52.1642 32.9199 50.1804 32.7854 48.4056 32.5596C44.0138 32.0007 40.8842 30.8806 38.4261 28.6281C38.0595 28.2922 37.7078 27.9405 37.3719 27.5739C35.1194 25.1158 33.9993 21.9862 33.4404 17.5944C33.2146 15.8196 33.0801 13.8358 33 11.6038C32.9199 13.8358 32.7854 15.8196 32.5596 17.5944C32.0007 21.9862 30.8806 25.1158 28.6281 27.5739C28.2922 27.9405 27.9405 28.2922 27.5739 28.6281C25.1158 30.8806 21.9862 32.0007 17.5944 32.5596C15.8196 32.7854 13.8358 32.9199 11.6038 33Z" fill="#D0F5FF"/>
<path d="M17.5944 33.4404C15.8196 33.2146 13.8358 33.0801 11.6038 33C13.8358 32.9199 15.8196 32.7854 17.5944 32.5596C21.9862 32.0007 25.1158 30.8806 27.5739 28.6281C27.9405 28.2922 28.2922 27.9405 28.6281 27.5739C30.8806 25.1158 32.0007 21.9862 32.5596 17.5944C32.7854 15.8196 32.9199 13.8358 33 11.6038C33.0801 13.8358 33.2146 15.8196 33.4404 17.5944C33.9993 21.9862 35.1194 25.1158 37.3719 27.5739C37.7078 27.9405 38.0595 28.2922 38.4261 28.6281C40.8842 30.8806 44.0138 32.0007 48.4056 32.5596C50.1804 32.7854 52.1642 32.9199 54.3962 33C52.1642 33.0801 50.1804 33.2146 48.4056 33.4404C44.0138 33.9993 40.8842 35.1194 38.4261 37.3719C38.0595 37.7078 37.7078 38.0595 37.3719 38.4261C35.1194 40.8842 33.9993 44.0138 33.4404 48.4056C33.2146 50.1804 33.0801 52.1642 33 54.3962C32.9199 52.1642 32.7854 50.1804 32.5596 48.4056C32.0007 44.0138 30.8806 40.8842 28.6281 38.4261C28.2922 38.0595 27.9405 37.7078 27.5739 37.3719C25.1158 35.1194 21.9862 33.9993 17.5944 33.4404Z" fill="#D0F5FF"/>
</svg>
