<svg width="25" height="24" viewBox="0 0 25 24" fill="none" xmlns="http://www.w3.org/2000/svg">
<rect x="0.5" width="24" height="24" rx="12" fill="#201338"/>
<path fill-rule="evenodd" clip-rule="evenodd" d="M5.95529 9.56759C4.59952 13.1673 6.46948 17.2344 10.1158 18.5432C10.2561 18.6368 10.3963 18.8237 10.3963 18.964V19.6185C10.3963 19.712 10.3963 19.7588 10.3495 19.8054C10.3029 19.9925 10.1158 20.0859 9.92881 19.9925C7.31095 19.151 5.30074 17.1408 4.45927 14.5229C3.05683 10.0819 5.48777 5.36025 9.92881 3.95781C9.9756 3.91113 10.0691 3.91113 10.1158 3.91113C10.3029 3.95781 10.3963 4.09805 10.3963 4.28508V4.93952C10.3963 5.17333 10.3029 5.31358 10.1158 5.40704C8.1992 6.10826 6.65651 7.60417 5.95529 9.56759ZM14.6505 4.14484C14.6971 3.95781 14.8842 3.86435 15.0712 3.95781C17.6423 4.79927 19.6993 6.80948 20.5407 9.47413C21.9432 13.9152 19.5122 18.6368 15.0712 20.0393C15.0244 20.0859 14.9309 20.0859 14.8842 20.0859C14.6971 20.0393 14.6037 19.899 14.6037 19.712V19.0575C14.6037 18.8237 14.6971 18.6835 14.8842 18.59C16.8008 17.8888 18.3435 16.3929 19.0447 14.4295C20.4005 10.8298 18.5305 6.7627 14.8842 5.45382C14.7439 5.36025 14.6037 5.17333 14.6037 4.9863V4.33187C14.6037 4.2383 14.6037 4.19162 14.6505 4.14484ZM12.6391 11.2035C14.6025 11.4372 15.5842 11.9982 15.5842 13.6344C15.5842 14.8966 14.6493 15.8783 13.2468 16.1121V17.2341C13.2001 17.4678 13.0598 17.608 12.8728 17.608H12.1716C11.9379 17.5612 11.7976 17.421 11.7976 17.2341V16.1121C10.255 15.8783 9.50696 15.0368 9.32005 13.8682V13.8214C9.32005 13.6344 9.46029 13.4941 9.6472 13.4941H10.442C10.5822 13.4941 10.7225 13.5877 10.7691 13.7746C10.9094 14.4759 11.3301 14.9902 12.5456 14.9902C13.4338 14.9902 14.0883 14.476 14.0883 13.728C14.0883 12.9799 13.6676 12.6995 12.3586 12.4657C10.3952 12.2319 9.46029 11.6243 9.46029 10.0816C9.46029 8.91283 10.3484 7.9779 11.7508 7.79087V6.7157C11.7976 6.48188 11.9379 6.34163 12.1249 6.34163H12.8261C13.0598 6.38842 13.2001 6.52867 13.2001 6.7157V7.83766C14.2752 7.93112 15.1167 8.7258 15.3037 9.7543V9.80109C15.3037 9.98801 15.1635 10.1283 14.9764 10.1283H14.2285C14.0883 10.1283 13.9481 10.0348 13.9013 9.89455C13.6676 9.19332 13.2001 8.91283 12.3586 8.91283C11.4237 8.91283 10.9562 9.33346 10.9562 9.98801C10.9562 10.6426 11.2367 11.0165 12.6391 11.2035Z" fill="#83919F"/>
</svg>
