<svg width="60" height="61" viewBox="0 0 120 121" fill="none" xmlns="http://www.w3.org/2000/svg">
    <path fill-rule="evenodd" clip-rule="evenodd" d="M16.3686 44.3474C7.33012 68.3453 19.7966 95.4593 44.1056 104.185C45.0406 104.809 45.9755 106.055 45.9755 106.99V111.354C45.9755 111.977 45.9755 112.289 45.6636 112.6C45.3525 113.847 44.1056 114.47 42.8587 113.847C25.4063 108.237 12.0049 94.8355 6.39515 77.383C-2.95449 47.7761 13.2518 16.2985 42.8587 6.94885C43.1707 6.63769 43.7937 6.6377 44.1056 6.6377C45.3525 6.94885 45.9755 7.88381 45.9755 9.13068V13.4936C45.9755 15.0524 45.3525 15.9873 44.1056 16.6104C31.328 21.2852 21.0434 31.2579 16.3686 44.3474ZM74.3364 8.19572C74.6475 6.94885 75.8944 6.32579 77.1413 6.94885C94.2818 12.5586 107.995 25.96 113.605 43.7243C122.954 73.3313 106.748 104.809 77.1413 114.159C76.8294 114.47 76.2063 114.47 75.8944 114.47C74.6475 114.159 74.0245 113.224 74.0245 111.977V107.614C74.0245 106.055 74.6475 105.12 75.8944 104.497C88.672 99.8222 98.9566 89.8495 103.631 76.76C112.67 52.7621 100.203 25.6481 75.8944 16.9223C74.9594 16.2985 74.0245 15.0524 74.0245 13.8055V9.44259C74.0245 8.81878 74.0245 8.50762 74.3364 8.19572ZM60.9272 55.2537C74.0166 56.8118 80.5612 60.5517 80.5612 71.4594C80.5612 79.8741 74.3285 86.4188 64.979 87.9776V95.4574C64.667 97.0154 63.7321 97.9504 62.4852 97.9504H57.8105C56.2525 97.6385 55.3175 96.7035 55.3175 95.4574V87.9776C45.0331 86.4188 40.0464 80.809 38.8003 73.0181V72.7062C38.8003 71.4594 39.7353 70.5244 40.9814 70.5244H46.2799C47.2149 70.5244 48.1498 71.1482 48.461 72.3943C49.3959 77.0692 52.2008 80.4979 60.3042 80.4979C66.225 80.4979 70.5887 77.0699 70.5887 72.0832C70.5887 67.0964 67.7838 65.2265 59.0573 63.6685C45.968 62.1097 39.7353 58.0587 39.7353 47.774C39.7353 39.9824 45.6561 33.7495 55.0056 32.5026V25.3348C55.3175 23.776 56.2525 22.841 57.4993 22.841H62.1741C63.7321 23.1529 64.667 24.0879 64.667 25.3348V32.8145C71.8348 33.4376 77.4445 38.7355 78.6913 45.5922V45.9041C78.6913 47.1502 77.7564 48.0852 76.5095 48.0852H71.5236C70.5887 48.0852 69.6537 47.4621 69.3418 46.5271C67.7838 41.8523 64.667 39.9824 59.0573 39.9824C52.8246 39.9824 49.7078 42.7865 49.7078 47.1502C49.7078 51.5139 51.5777 54.0069 60.9272 55.2537Z" fill="white"/>
</svg>
