<svg width="20" height="20" viewBox="0 0 20 20" fill="none" xmlns="http://www.w3.org/2000/svg">
  <g clip-path="url(#clip0_168_702)">
    <path d="M7.91663 2.5H12.0833C12.4148 2.5 12.7328 2.6317 12.9672 2.86612C13.2016 3.10054 13.3333 3.41848 13.3333 3.75C13.3333 4.52355 13.026 5.26541 12.479 5.81239C11.932 6.35938 11.1902 6.66667 10.4166 6.66667H9.58329C8.80974 6.66667 8.06788 6.35938 7.5209 5.81239C6.97392 5.26541 6.66663 4.52355 6.66663 3.75C6.66663 3.41848 6.79832 3.10054 7.03274 2.86612C7.26716 2.6317 7.58511 2.5 7.91663 2.5Z" 
      stroke="currentColor" stroke-width="2" stroke-linecap="round" stroke-linejoin="round"/>
    <path d="M3.33337 14.1665V13.3332C3.33337 11.5651 4.03575 9.86937 5.286 8.61913C6.53624 7.36888 8.23193 6.6665 10 6.6665C11.7682 6.6665 13.4638 7.36888 14.7141 8.61913C15.9643 9.86937 16.6667 11.5651 16.6667 13.3332V14.1665C16.6667 15.0506 16.3155 15.8984 15.6904 16.5235C15.0653 17.1486 14.2174 17.4998 13.3334 17.4998H6.66671C5.78265 17.4998 4.93481 17.1486 4.30968 16.5235C3.68456 15.8984 3.33337 15.0506 3.33337 14.1665Z" 
      stroke="currentColor" stroke-width="2" stroke-linecap="round" stroke-linejoin="round"/>
  </g>
  <defs>
    <clipPath id="clip0_168_702">
      <rect width="20" height="20" fill="white"/>
    </clipPath>
  </defs>
</svg>
