<svg width="61" height="60" viewBox="0 0 61 60" fill="none" xmlns="http://www.w3.org/2000/svg">
<g clip-path="url(#clip0_2028_462)">
<path d="M51.2925 10.3887C47.4683 8.63398 43.3675 7.3412 39.0797 6.60076C39.0017 6.58647 38.9237 6.62218 38.8834 6.69361C38.356 7.63165 37.7718 8.85539 37.3627 9.81725C32.751 9.12683 28.163 9.12683 23.6458 9.81725C23.2366 8.83401 22.6312 7.63165 22.1014 6.69361C22.0612 6.62457 21.9832 6.58886 21.9051 6.60076C17.6198 7.33883 13.5189 8.63162 9.69234 10.3887C9.65921 10.403 9.63082 10.4268 9.61197 10.4577C1.83348 22.0786 -0.297376 33.4139 0.74795 44.6086C0.75268 44.6634 0.783425 44.7158 0.825995 44.7491C5.95802 48.5179 10.9293 50.806 15.8082 52.3225C15.8863 52.3464 15.969 52.3178 16.0187 52.2535C17.1728 50.6774 18.2016 49.0156 19.0837 47.268C19.1357 47.1656 19.0861 47.0442 18.9797 47.0037C17.3478 46.3847 15.794 45.63 14.2993 44.7729C14.1811 44.7039 14.1716 44.5348 14.2804 44.4538C14.5949 44.2181 14.9095 43.9729 15.2099 43.7253C15.2642 43.6801 15.3399 43.6705 15.4038 43.6991C25.2232 48.1823 35.8539 48.1823 45.5574 43.6991C45.6213 43.6682 45.697 43.6777 45.7537 43.7229C46.0541 43.9705 46.3686 44.2181 46.6856 44.4538C46.7943 44.5348 46.7872 44.7039 46.669 44.7729C45.1743 45.6466 43.6205 46.3847 41.9863 47.0014C41.8799 47.0419 41.8326 47.1656 41.8846 47.268C42.7856 49.0131 43.8144 50.675 44.9472 52.2511C44.9946 52.3178 45.0797 52.3464 45.1577 52.3225C50.0603 50.806 55.0315 48.5179 60.1636 44.7491C60.2085 44.7158 60.2369 44.6658 60.2417 44.611C61.4927 31.6687 58.1462 20.4264 51.3705 10.4601C51.354 10.4268 51.3257 10.403 51.2925 10.3887ZM20.5501 37.7922C17.5937 37.7922 15.1578 35.0781 15.1578 31.7449C15.1578 28.4117 17.5465 25.6976 20.5501 25.6976C23.5772 25.6976 25.9895 28.4355 25.9422 31.7449C25.9422 35.0781 23.5535 37.7922 20.5501 37.7922ZM40.4869 37.7922C37.5306 37.7922 35.0947 35.0781 35.0947 31.7449C35.0947 28.4117 37.4833 25.6976 40.4869 25.6976C43.5141 25.6976 45.9263 28.4355 45.8791 31.7449C45.8791 35.0781 43.5141 37.7922 40.4869 37.7922Z" fill="#74D6FD"/>
</g>
<defs>
<clipPath id="clip0_2028_462">
<rect width="60" height="60" fill="white" transform="translate(0.5)"/>
</clipPath>
</defs>
</svg>
