<svg width="16" height="17" viewBox="0 0 16 17" fill="none" xmlns="http://www.w3.org/2000/svg">
<path d="M2 5.16669H4" stroke="#433B5A" stroke-linecap="round" stroke-linejoin="round"/>
<path d="M2 11.8333H6" stroke="#433B5A" stroke-linecap="round" stroke-linejoin="round"/>
<path d="M12 11.8333H14" stroke="#433B5A" stroke-linecap="round" stroke-linejoin="round"/>
<path d="M10 5.16669H14" stroke="#433B5A" stroke-linecap="round" stroke-linejoin="round"/>
<path d="M4 5.16669C4 4.54543 4 4.23481 4.10149 3.98977C4.23682 3.66307 4.49639 3.40351 4.82309 3.26818C5.06812 3.16669 5.37875 3.16669 6 3.16669C6.62125 3.16669 6.93187 3.16669 7.17693 3.26818C7.5036 3.40351 7.7632 3.66307 7.89853 3.98977C8 4.23481 8 4.54543 8 5.16669C8 5.78794 8 6.09857 7.89853 6.3436C7.7632 6.6703 7.5036 6.92987 7.17693 7.06519C6.93187 7.16669 6.62125 7.16669 6 7.16669C5.37875 7.16669 5.06812 7.16669 4.82309 7.06519C4.49639 6.92987 4.23682 6.6703 4.10149 6.3436C4 6.09857 4 5.78794 4 5.16669Z" stroke="#433B5A"/>
<path d="M8 11.8333C8 11.212 8 10.9014 8.10147 10.6564C8.2368 10.3297 8.4964 10.0701 8.82307 9.93478C9.06813 9.83331 9.37873 9.83331 10 9.83331C10.6213 9.83331 10.9319 9.83331 11.1769 9.93478C11.5036 10.0701 11.7632 10.3297 11.8985 10.6564C12 10.9014 12 11.212 12 11.8333C12 12.4546 12 12.7652 11.8985 13.0102C11.7632 13.3369 11.5036 13.5965 11.1769 13.7318C10.9319 13.8333 10.6213 13.8333 10 13.8333C9.37873 13.8333 9.06813 13.8333 8.82307 13.7318C8.4964 13.5965 8.2368 13.3369 8.10147 13.0102C8 12.7652 8 12.4546 8 11.8333Z" stroke="#433B5A"/>
</svg>
