<svg width="17" height="16" viewBox="0 0 17 16" fill="none" xmlns="http://www.w3.org/2000/svg">
  <path d="M1.91675 8.00008C1.91675 5.01452 1.91675 3.52174 2.84424 2.59424C3.77174 1.66675 5.26452 1.66675 8.25008 1.66675C11.2356 1.66675 12.7284 1.66675 13.6559 2.59424C14.5834 3.52174 14.5834 5.01452 14.5834 8.00008C14.5834 10.9856 14.5834 12.4784 13.6559 13.4059C12.7284 14.3334 11.2356 14.3334 8.25008 14.3334C5.26452 14.3334 3.77174 14.3334 2.84424 13.4059C1.91675 12.4784 1.91675 10.9856 1.91675 8.00008Z" stroke="currentColor" />
  <path d="M7.58325 4.66675H11.5833" stroke="currentColor" stroke-linecap="round" />
  <path d="M4.91675 4.66675H5.58341" stroke="currentColor" stroke-linecap="round" />
  <path d="M4.91675 8H5.58341" stroke="currentColor" stroke-linecap="round" />
  <path d="M4.91675 11.3333H5.58341" stroke="currentColor" stroke-linecap="round" />
  <path d="M7.58325 8H11.5833" stroke="currentColor" stroke-linecap="round" />
  <path d="M7.58325 11.3333H11.5833" stroke="currentColor" stroke-linecap="round" />
</svg>

