<svg width="20" height="20" viewBox="0 0 20 20" fill="none" xmlns="http://www.w3.org/2000/svg">
<path d="M8.33341 17.1394C5.47627 18.1038 3.09532 17.1394 1.66675 14.1665" stroke="#FDFDFD" stroke-width="1.25" stroke-linecap="round" stroke-linejoin="round"/>
<path d="M8.33341 18.3332V15.6314C8.33341 15.1328 8.48666 14.6995 8.73375 14.3081C8.90325 14.0395 8.78717 13.6585 8.481 13.5743C5.94503 12.8772 4.16675 11.7563 4.16675 8.03822C4.16675 7.07159 4.48346 6.1628 5.04017 5.37184C5.17872 5.17499 5.24799 5.07657 5.26465 4.98742C5.2813 4.89828 5.25235 4.78194 5.19443 4.54927C4.95873 3.60227 4.97401 2.59666 5.32776 1.69003C5.32776 1.69003 6.05876 1.45185 7.72257 2.49124C8.10243 2.72856 8.29237 2.84722 8.45966 2.87376C8.62691 2.9003 8.85058 2.8447 9.29783 2.73351C9.9095 2.58146 10.5397 2.49984 11.2501 2.49984C11.9604 2.49984 12.5907 2.58146 13.2023 2.73351C13.6496 2.8447 13.8732 2.9003 14.0405 2.87376C14.2078 2.84722 14.3977 2.72856 14.7776 2.49124C16.4414 1.45185 17.1724 1.69003 17.1724 1.69003C17.5262 2.59666 17.5414 3.60227 17.3057 4.54927C17.2478 4.78194 17.2188 4.89828 17.2355 4.98742C17.2522 5.07656 17.3214 5.17499 17.46 5.37184C18.0167 6.1628 18.3334 7.07159 18.3334 8.03822C18.3334 11.7563 16.5552 12.8772 14.0192 13.5743C13.713 13.6585 13.5969 14.0395 13.7664 14.3081C14.0135 14.6995 14.1667 15.1328 14.1667 15.6314V18.3332" stroke="#FDFDFD" stroke-width="1.25" stroke-linecap="round" stroke-linejoin="round"/>
</svg>
