<svg xmlns="http://www.w3.org/2000/svg" width="60" height="61" viewBox="0 0 120 121" fill="none">
    <path d="M99.55 78.1125H76.9C75.5739 78.1125 74.3021 78.6393 73.3645 79.577C72.4268 80.5147 71.9 81.7864 71.9 83.1125C71.9 84.4386 72.4268 85.7103 73.3645 86.648C74.3021 87.5857 75.5739 88.1125 76.9 88.1125H88.9C83.3847 93.8762 76.272 97.8591 68.4758 99.5495C60.6796 101.24 52.556 100.561 45.1489 97.5987C37.7417 94.6369 31.3893 89.528 26.908 82.9284C22.4266 76.3287 20.0209 68.5398 20 60.5625C20 59.2364 19.4732 57.9646 18.5355 57.027C17.5979 56.0893 16.3261 55.5625 15 55.5625C13.6739 55.5625 12.4021 56.0893 11.4645 57.027C10.5268 57.9646 10 59.2364 10 60.5625C10.0264 70.3265 12.9111 79.8691 18.298 88.0126C23.6849 96.1562 31.3383 102.544 40.3137 106.389C49.2891 110.233 59.1937 111.365 68.8051 109.646C78.4165 107.926 87.3142 103.43 94.4 96.7125V105.562C94.4 106.889 94.9268 108.16 95.8645 109.098C96.8021 110.036 98.0739 110.562 99.4 110.562C100.726 110.562 101.998 110.036 102.936 109.098C103.873 108.16 104.4 106.889 104.4 105.562V83.0625C104.388 81.7707 103.876 80.5338 102.972 79.611C102.068 78.6882 100.841 78.1512 99.55 78.1125ZM60 10.5625C47.1819 10.5991 34.8675 15.5571 25.6 24.4125V15.5625C25.6 14.2364 25.0732 12.9646 24.1355 12.027C23.1979 11.0893 21.9261 10.5625 20.6 10.5625C19.2739 10.5625 18.0021 11.0893 17.0645 12.027C16.1268 12.9646 15.6 14.2364 15.6 15.5625V38.0625C15.6 39.3886 16.1268 40.6604 17.0645 41.598C18.0021 42.5357 19.2739 43.0625 20.6 43.0625H43.1C44.4261 43.0625 45.6979 42.5357 46.6355 41.598C47.5732 40.6604 48.1 39.3886 48.1 38.0625C48.1 36.7364 47.5732 35.4646 46.6355 34.527C45.6979 33.5893 44.4261 33.0625 43.1 33.0625H31.1C36.6123 27.3019 43.7205 23.32 51.512 21.628C59.3035 19.9361 67.4229 20.6112 74.828 23.5668C82.2331 26.5224 88.586 31.6236 93.0712 38.2155C97.5564 44.8075 99.9692 52.5894 100 60.5625C100 61.8886 100.527 63.1604 101.464 64.098C102.402 65.0357 103.674 65.5625 105 65.5625C106.326 65.5625 107.598 65.0357 108.536 64.098C109.473 63.1604 110 61.8886 110 60.5625C110 53.9964 108.707 47.4946 106.194 41.4283C103.681 35.362 99.9983 29.8501 95.3553 25.2072C90.7124 20.5642 85.2005 16.8813 79.1342 14.3685C73.0679 11.8558 66.5661 10.5625 60 10.5625V10.5625Z" fill="white"/>
</svg>