<svg width="312" height="36" viewBox="0 0 312 36" fill="none" xmlns="http://www.w3.org/2000/svg">
<path d="M12.6001 29.55H23.9695L26.1097 25.35H33.6001" stroke="url(#paint0_linear_47_3453)" stroke-width="1.4"/>
<g clip-path="url(#clip0_47_3453)">
</g>
<rect x="6.6498" y="26.4" width="6.3" height="6.3" rx="3.15" stroke="url(#paint1_linear_47_3453)" stroke-width="0.7"/>
<path d="M4.8999 19.7501H8.98109L10.9559 23.2501H18.9866L20.9614 20.4742H33.4683H33.5999" stroke="url(#paint2_linear_47_3453)" stroke-width="1.4"/>
<rect x="0.35" y="17.3" width="4.9" height="4.9" rx="2.45" stroke="url(#paint3_linear_47_3453)" stroke-width="0.7"/>
<path d="M19.6001 14.85H33.6001" stroke="url(#paint4_linear_47_3453)" stroke-width="1.4"/>
<rect x="13.6498" y="11.7" width="6.3" height="6.3" rx="3.15" stroke="url(#paint5_linear_47_3453)" stroke-width="0.7"/>
<path d="M11.8999 5.75006H17.644L20.0693 9.95006H33.5999" stroke="url(#paint6_linear_47_3453)" stroke-width="1.4"/>
<g clip-path="url(#clip1_47_3453)">
</g>
<rect x="7.35" y="3.30001" width="4.9" height="4.9" rx="2.45" stroke="url(#paint7_linear_47_3453)" stroke-width="0.7"/>
<path d="M48.1851 11.9648C48.0939 11.9284 47.9845 11.8646 47.8569 11.7734C47.7293 11.6823 47.547 11.6003 47.3101 11.5273C47.0731 11.4362 46.7723 11.3633 46.4077 11.3086C46.0431 11.2539 45.5783 11.2448 45.0132 11.2812V8.51953C45.8153 8.53776 46.6265 8.62891 47.4468 8.79297C48.2853 8.9388 48.9598 9.17578 49.4702 9.50391C49.3608 9.74089 49.2332 10.0052 49.0874 10.2969C48.9416 10.5703 48.8049 10.8346 48.6772 11.0898C48.5496 11.3268 48.4403 11.5273 48.3491 11.6914C48.258 11.8555 48.2033 11.9466 48.1851 11.9648ZM38.7515 14.1523C38.7515 13.3503 38.8882 12.6302 39.1616 11.9922C39.4351 11.3542 39.7996 10.7982 40.2554 10.3242C40.7293 9.83203 41.2762 9.44922 41.896 9.17578C42.534 8.88411 43.1994 8.69271 43.8921 8.60156V11.4727C43.3088 11.6732 42.8257 12.0286 42.4429 12.5391C42.0601 13.0312 41.8687 13.5326 41.8687 14.043C41.8687 14.7539 42.0601 15.3281 42.4429 15.7656C42.8257 16.2031 43.3088 16.5859 43.8921 16.9141V20.0312C43.2905 19.7396 42.689 19.4297 42.0874 19.1016C41.4858 18.7552 40.939 18.3542 40.4468 17.8984C39.9546 17.4427 39.5444 16.9141 39.2163 16.3125C38.9064 15.7109 38.7515 14.9909 38.7515 14.1523ZM39.189 25.3086C39.4442 25.4544 39.7632 25.6003 40.146 25.7461C40.547 25.8737 40.9572 26.0013 41.3765 26.1289C41.7957 26.2383 42.215 26.3294 42.6343 26.4023C43.0535 26.4753 43.4455 26.5117 43.8101 26.5117H43.8921V29.1094H43.8374C43.3999 29.1094 42.9442 29.082 42.4702 29.0273C42.0145 28.9909 41.5496 28.918 41.0757 28.8086C40.6017 28.6992 40.146 28.5534 39.7085 28.3711C39.2892 28.1706 38.9246 27.9336 38.6147 27.6602L39.189 25.3086ZM45.0132 17.4609C45.6147 17.7344 46.2254 18.026 46.8452 18.3359C47.4832 18.6458 48.0575 19.0286 48.5679 19.4844C49.0783 19.9219 49.4976 20.4596 49.8257 21.0977C50.1538 21.7357 50.3179 22.5286 50.3179 23.4766C50.3179 24.1328 50.1903 24.7708 49.9351 25.3906C49.6981 26.0104 49.3517 26.5755 48.896 27.0859C48.4585 27.5781 47.9116 27.9974 47.2554 28.3438C46.5991 28.6901 45.8517 28.918 45.0132 29.0273V26.4023C46.508 26.0378 47.2554 25.0443 47.2554 23.4219C47.2554 22.7839 47.0457 22.2552 46.6265 21.8359C46.2072 21.4167 45.6694 21.0247 45.0132 20.6602V17.4609ZM56.5522 13.5781L56.9077 15.1367V35.0703H53.5718V13.5781H56.5522ZM67.0522 18.2539C67.271 19.0924 67.3804 20.0312 67.3804 21.0703C67.3804 22.1094 67.2528 23.1211 66.9976 24.1055C66.7606 25.0716 66.3869 25.9284 65.8765 26.6758C65.3843 27.4232 64.7554 28.0247 63.9897 28.4805C63.2424 28.918 62.3582 29.1367 61.3374 29.1367C60.6994 29.1367 60.0887 29.0638 59.5054 28.918C58.9403 28.7721 58.4481 28.5807 58.0288 28.3438V25.5C58.6304 26.2109 59.3687 26.5664 60.2437 26.5664C60.7905 26.5664 61.2827 26.4297 61.7202 26.1562C62.1759 25.8828 62.5588 25.5182 62.8687 25.0625C63.1968 24.5885 63.452 24.0326 63.6343 23.3945C63.8166 22.7383 63.9077 22.0456 63.9077 21.3164C63.9077 20.6055 63.8257 19.931 63.6616 19.293C63.4976 18.6549 63.2606 18.0898 62.9507 17.5977C62.659 17.1055 62.2944 16.7135 61.8569 16.4219C61.4377 16.1302 60.9455 15.9844 60.3804 15.9844C59.9064 15.9844 59.4689 16.0846 59.0679 16.2852C58.6851 16.4674 58.3387 16.7318 58.0288 17.0781V14.1797C58.4481 13.9427 58.9129 13.7604 59.4233 13.6328C59.9338 13.5052 60.4624 13.4414 61.0093 13.4414C61.6108 13.4414 62.2215 13.5234 62.8413 13.6875C63.4611 13.8516 64.0353 14.125 64.564 14.5078C65.1108 14.8906 65.603 15.3919 66.0405 16.0117C66.478 16.6315 66.8153 17.3789 67.0522 18.2539ZM78.3179 13.4961C79.3205 13.5508 80.2319 13.7969 81.0522 14.2344C81.8726 14.6536 82.5562 15.2188 83.103 15.9297C83.6681 16.6224 84.1056 17.4336 84.4155 18.3633C84.7254 19.293 84.8804 20.2865 84.8804 21.3438C84.8804 22.401 84.7163 23.3945 84.3882 24.3242C84.0783 25.2357 83.6408 26.0378 83.0757 26.7305C82.5106 27.4049 81.8179 27.9518 80.9976 28.3711C80.1772 28.7904 79.284 29.0365 78.3179 29.1094V26.4844C79.2293 26.2839 79.9676 25.7096 80.5327 24.7617C81.116 23.8138 81.4077 22.6745 81.4077 21.3438C81.4077 20.6693 81.3348 20.0404 81.189 19.457C81.0614 18.8555 80.8608 18.3177 80.5874 17.8438C80.314 17.3698 79.9858 16.9779 79.603 16.668C79.2202 16.3581 78.7918 16.1576 78.3179 16.0664V13.4961ZM70.689 21.2891C70.689 20.2318 70.8439 19.2474 71.1538 18.3359C71.4637 17.4245 71.9012 16.6315 72.4663 15.957C73.0496 15.2643 73.7424 14.7083 74.5444 14.2891C75.3465 13.8698 76.2306 13.6146 77.1968 13.5234V16.0664C76.2853 16.2669 75.5562 16.8411 75.0093 17.7891C74.4624 18.737 74.189 19.8763 74.189 21.207C74.189 21.8815 74.2528 22.5195 74.3804 23.1211C74.5262 23.7227 74.7267 24.2604 74.9819 24.7344C75.2371 25.2083 75.547 25.6003 75.9116 25.9102C76.2944 26.2201 76.7228 26.4115 77.1968 26.4844V29.1094C76.1942 29.0365 75.2918 28.7904 74.4897 28.3711C73.6877 27.9336 73.0041 27.3685 72.439 26.6758C71.8739 25.9831 71.4364 25.1719 71.1265 24.2422C70.8348 23.3125 70.689 22.3281 70.689 21.2891ZM93.5757 24.3242C93.5757 24.944 93.6577 25.4271 93.8218 25.7734C93.9858 26.1198 94.2137 26.3841 94.5054 26.5664C94.8153 26.7487 95.1525 26.8672 95.5171 26.9219C95.8999 26.9583 96.3009 26.9766 96.7202 26.9766V29C96.4832 29.0365 96.2463 29.0638 96.0093 29.082C95.8088 29.1003 95.5627 29.1094 95.271 29.1094C94.9976 29.1276 94.7241 29.1367 94.4507 29.1367C94.1772 29.1367 93.8947 29.1276 93.603 29.1094C93.3296 29.0911 93.0926 29.0638 92.8921 29.0273C92.2723 28.918 91.7892 28.6536 91.4429 28.2344C91.0965 27.7969 90.8322 27.3229 90.6499 26.8125C90.4858 26.2839 90.3765 25.7734 90.3218 25.2812C90.2853 24.7891 90.2671 24.4062 90.2671 24.1328V15.8203H88.2437V13.5781H90.2671V9.20312H93.5757V13.5781H96.0366V15.8203H93.5757V24.3242ZM103.556 13.5781L103.912 15.1367V29H100.603V13.5781H103.556ZM112.087 15.2734C112.397 15.5833 112.634 15.9479 112.798 16.3672C112.981 16.7682 113.108 17.1966 113.181 17.6523C113.272 18.0898 113.327 18.5365 113.345 18.9922C113.363 19.4479 113.373 19.8945 113.373 20.332V28.4531V29H110.037V20.6055C110.037 19.9857 110.009 19.3932 109.955 18.8281C109.9 18.263 109.772 17.7617 109.572 17.3242C109.371 16.8867 109.098 16.5495 108.751 16.3125C108.405 16.0573 107.922 15.9297 107.302 15.9297C107.047 15.9297 106.701 15.9753 106.263 16.0664C105.844 16.1393 105.434 16.2669 105.033 16.4492V14.3438C105.525 14.0885 106.054 13.8698 106.619 13.6875C107.202 13.5052 107.767 13.4141 108.314 13.4141C109.134 13.4141 109.827 13.5872 110.392 13.9336C110.957 14.2617 111.522 14.7083 112.087 15.2734ZM125.103 13.4414C126.087 13.5326 126.972 13.7969 127.755 14.2344C128.557 14.6719 129.241 15.237 129.806 15.9297C130.371 16.6224 130.8 17.4154 131.091 18.3086C131.401 19.2018 131.556 20.1315 131.556 21.0977C131.556 21.5352 131.529 21.9727 131.474 22.4102H122.095V20.0039H128.412C128.412 19.5299 128.33 19.0742 128.166 18.6367C128.02 18.1992 127.792 17.7982 127.482 17.4336C127.19 17.0508 126.844 16.7318 126.443 16.4766C126.042 16.2214 125.595 16.0664 125.103 16.0117V13.4414ZM124.994 26.4297C125.194 26.4297 125.44 26.4115 125.732 26.375C126.042 26.3203 126.361 26.2383 126.689 26.1289C127.035 26.0013 127.373 25.8464 127.701 25.6641C128.047 25.4818 128.348 25.263 128.603 25.0078L129.806 26.8398C129.205 27.5872 128.503 28.1523 127.701 28.5352C126.899 28.918 125.878 29.1094 124.638 29.1094C123.636 29.1094 122.697 28.9089 121.822 28.5078C120.947 28.0885 120.199 27.5234 119.58 26.8125C118.96 26.1016 118.468 25.2721 118.103 24.3242C117.738 23.3763 117.556 22.3555 117.556 21.2617C117.556 20.2227 117.72 19.2383 118.048 18.3086C118.395 17.3789 118.86 16.5677 119.443 15.875C120.026 15.1641 120.701 14.5898 121.466 14.1523C122.25 13.7148 123.089 13.4688 123.982 13.4141V16.0391C123.307 16.1667 122.751 16.4401 122.314 16.8594C121.876 17.2786 121.53 17.7617 121.275 18.3086C121.038 18.8372 120.865 19.3841 120.755 19.9492C120.664 20.5143 120.619 20.9974 120.619 21.3984C120.619 22.1094 120.701 22.7747 120.865 23.3945C121.047 23.9961 121.32 24.5247 121.685 24.9805C122.05 25.418 122.496 25.7734 123.025 26.0469C123.572 26.3021 124.228 26.4297 124.994 26.4297ZM140.498 24.3242C140.498 24.944 140.58 25.4271 140.744 25.7734C140.908 26.1198 141.136 26.3841 141.427 26.5664C141.737 26.7487 142.074 26.8672 142.439 26.9219C142.822 26.9583 143.223 26.9766 143.642 26.9766V29C143.405 29.0365 143.168 29.0638 142.931 29.082C142.731 29.1003 142.485 29.1094 142.193 29.1094C141.919 29.1276 141.646 29.1367 141.373 29.1367C141.099 29.1367 140.817 29.1276 140.525 29.1094C140.251 29.0911 140.014 29.0638 139.814 29.0273C139.194 28.918 138.711 28.6536 138.365 28.2344C138.018 27.7969 137.754 27.3229 137.572 26.8125C137.408 26.2839 137.298 25.7734 137.244 25.2812C137.207 24.7891 137.189 24.4062 137.189 24.1328V15.8203H135.166V13.5781H137.189V9.20312H140.498V13.5781H142.958V15.8203H140.498V24.3242Z" fill="#FDFDFD"/>
<defs>
<linearGradient id="paint0_linear_47_3453" x1="12.546" y1="29.3065" x2="21.2543" y2="16.3916" gradientUnits="userSpaceOnUse">
<stop offset="0.155" stop-color="#E01DEE"/>
<stop offset="1" stop-color="#62D1FC"/>
</linearGradient>
<linearGradient id="paint1_linear_47_3453" x1="6.28176" y1="32.6441" x2="14.818" y2="30.1122" gradientUnits="userSpaceOnUse">
<stop stop-color="white"/>
<stop offset="0.0001" stop-color="#E01DEE"/>
<stop offset="1" stop-color="#62D1FC"/>
</linearGradient>
<linearGradient id="paint2_linear_47_3453" x1="4.82593" y1="23.0471" x2="10.332" y2="9.65521" gradientUnits="userSpaceOnUse">
<stop stop-color="white"/>
<stop offset="0.135" stop-color="#E01DEE"/>
<stop offset="1" stop-color="#62D1FC"/>
</linearGradient>
<linearGradient id="paint3_linear_47_3453" x1="-0.0144338" y1="22.2252" x2="6.81457" y2="20.1997" gradientUnits="userSpaceOnUse">
<stop stop-color="white"/>
<stop offset="0.135" stop-color="#E01DEE"/>
<stop offset="1" stop-color="#62D1FC"/>
</linearGradient>
<linearGradient id="paint4_linear_47_3453" x1="19.564" y1="15.792" x2="20.5822" y2="11.5642" gradientUnits="userSpaceOnUse">
<stop stop-color="white"/>
<stop offset="0.135" stop-color="#E01DEE"/>
<stop offset="1" stop-color="#62D1FC"/>
</linearGradient>
<linearGradient id="paint5_linear_47_3453" x1="13.2818" y1="17.9441" x2="21.818" y2="15.4122" gradientUnits="userSpaceOnUse">
<stop stop-color="white"/>
<stop offset="0.135" stop-color="#E01DEE"/>
<stop offset="1" stop-color="#62D1FC"/>
</linearGradient>
<linearGradient id="paint6_linear_47_3453" x1="11.844" y1="9.70649" x2="20.442" y2="-3.46983" gradientUnits="userSpaceOnUse">
<stop stop-color="white"/>
<stop offset="0.135" stop-color="#E01DEE"/>
<stop offset="1" stop-color="#62D1FC"/>
</linearGradient>
<linearGradient id="paint7_linear_47_3453" x1="6.98557" y1="8.22525" x2="13.8146" y2="6.1997" gradientUnits="userSpaceOnUse">
<stop stop-color="white"/>
<stop offset="0.135" stop-color="#E01DEE"/>
<stop offset="1" stop-color="#62D1FC"/>
</linearGradient>
<clipPath id="clip0_47_3453">
<rect x="6.2998" y="26.05" width="7" height="7" rx="3.5" fill="white"/>
</clipPath>
<clipPath id="clip1_47_3453">
<rect x="7" y="2.95001" width="5.6" height="5.6" rx="2.8" fill="white"/>
</clipPath>
</defs>
</svg>
