<svg width="20" height="20" viewBox="0 0 20 20" fill="none" xmlns="http://www.w3.org/2000/svg">
<path d="M9.98792 12.8402L12.6891 15.9113C13.6898 17.0491 14.1902 17.618 14.714 17.4795C15.2377 17.341 15.4174 16.5923 15.7766 15.0948L17.7692 6.78825C18.3224 4.48193 18.599 3.32878 17.9841 2.76C17.3692 2.19122 16.3034 2.61437 14.1718 3.46068L4.28238 7.38707C2.57752 8.06395 1.72509 8.40242 1.67097 8.984C1.66543 9.0435 1.66534 9.10342 1.6707 9.16292C1.72303 9.74475 2.57442 10.0861 4.27721 10.7686C5.04873 11.0778 5.4345 11.2325 5.71108 11.5287C5.74218 11.5619 5.77208 11.5964 5.80073 11.632C6.05557 11.9487 6.16432 12.3642 6.38182 13.1953L6.78886 14.7508C7.0005 15.5596 7.10632 15.964 7.38348 16.0192C7.66064 16.0742 7.90196 15.7389 8.38458 15.0682L9.98792 12.8402ZM9.98792 12.8402L9.72308 12.5642C9.42167 12.2501 9.271 12.0931 9.271 11.8979C9.271 11.7027 9.42167 11.5457 9.72308 11.2315L12.7006 8.12841" stroke="#FDFDFD" stroke-width="1.25" stroke-linecap="round" stroke-linejoin="round"/>
</svg>
