<svg width="61" height="60" viewBox="0 0 61 60" fill="none" xmlns="http://www.w3.org/2000/svg">
<g clip-path="url(#clip0_2028_466)">
<path fill-rule="evenodd" clip-rule="evenodd" d="M5.12469 26.8027C21.2308 20.311 31.9707 16.0313 37.3444 13.9636C52.6876 8.05978 55.8757 7.03423 57.9537 7.00036C58.4108 6.99291 59.4327 7.0977 60.0946 7.5946C60.6536 8.01417 60.8074 8.58095 60.8809 8.97875C60.9545 9.37655 61.0462 10.2827 60.9733 10.9908C60.1419 19.0727 56.5442 38.6853 54.7139 47.7371C53.9395 51.5673 52.4145 52.8515 50.9382 52.9772C47.7298 53.2503 45.2935 51.0157 42.186 49.1312C37.3234 46.1824 34.5764 44.3468 29.8564 41.4693C24.4016 38.1439 27.9377 36.3162 31.0463 33.3292C31.8599 32.5475 45.9961 20.6524 46.2697 19.5734C46.304 19.4384 46.3357 18.9354 46.0127 18.6697C45.6896 18.4041 45.2128 18.4949 44.8688 18.5672C44.3811 18.6696 36.613 23.4195 21.5646 32.8169C19.3597 34.2176 17.3625 34.9 15.5731 34.8642C13.6004 34.8248 9.80583 33.8324 6.98493 32.9841C3.52498 31.9436 0.775081 31.3935 1.01454 29.6265C1.13926 28.7061 2.50931 27.7649 5.12469 26.8027Z" fill="#74D6FD"/>
</g>
<defs>
<clipPath id="clip0_2028_466">
<rect width="60" height="60" fill="white" transform="translate(0.5)"/>
</clipPath>
</defs>
</svg>
