<svg width="142" height="142" viewBox="0 0 142 142" fill="none" xmlns="http://www.w3.org/2000/svg">
    <g filter="url(#filter0_d_19_3150)">
        <path d="M71.5503 106.096L84.6348 102.349C84.7872 102.305 84.9161 102.203 84.993 102.064L87.6713 97.2364C87.9675 96.7024 88.4638 96.308 89.0508 96.1399C89.8892 95.8998 90.7913 96.154 91.3809 96.7965L93.8798 99.5193C93.9609 99.6077 94.085 99.6427 94.2004 99.6096L99.5922 98.0656C100.296 97.8641 100.703 97.1301 100.502 96.4263C99.0206 91.2541 98.764 85.8082 99.7524 80.5197C101.019 73.7442 102.906 66.7124 99.8638 60.0983L97.4799 54.9158C96.7279 53.2808 94.8951 52.4394 93.165 52.9348L92.5348 53.1153C90.9475 53.5698 90.0293 55.225 90.4838 56.8123L91.1313 59.0736C91.2282 59.412 91.0325 59.7649 90.6941 59.8618C90.3557 59.9587 90.0028 59.7629 89.9059 59.4245L88.4354 54.2892C87.7127 51.7654 85.0809 50.3054 82.5572 51.0281C80.0334 51.7508 78.5734 54.3825 79.2961 56.9063L80.7949 62.1404C80.9756 62.7713 80.6106 63.4293 79.9797 63.61C79.3487 63.7906 78.6908 63.4256 78.5101 62.7947L77.0113 57.5606C76.2886 55.0368 73.6568 53.5768 71.1331 54.2995C68.6094 55.0222 67.1493 57.6539 67.872 60.1777L69.7576 66.7624C69.8084 66.9398 69.8172 67.1265 69.7833 67.3079C69.6034 68.2704 68.4018 68.6145 67.7397 67.8931C67.615 67.7571 67.5236 67.5941 67.4728 67.4167L61.0073 44.8382C60.1544 41.86 56.6166 38.679 53.3324 39.6195C50.0482 40.5599 48.7304 45.1314 49.5832 48.1096L57.6738 76.363C57.903 77.1634 57.4399 77.998 56.6396 78.2272C56.1224 78.3753 55.5674 78.2384 55.1756 77.8698C53.873 76.6446 50.8674 73.88 49.2715 72.9206C48.3719 72.3798 46.8409 72.2474 45.3951 72.2709C43.1532 72.3075 41.3345 73.9397 40.6524 76.0757C39.7823 78.8003 40.9563 81.7604 43.4574 83.148L48.2839 85.8256C50.0124 86.7845 51.4939 88.1328 52.6111 89.7635L53.0361 90.3838C54.4328 92.4226 56.285 94.1081 58.446 95.3069L66.0503 99.5257C68.4867 100.877 70.2863 103.141 71.0533 105.82C71.1144 106.033 71.3369 106.157 71.5503 106.096Z" fill="#FCFCFD"/>
        <path d="M71.5503 106.096L84.6348 102.349C84.7872 102.305 84.9161 102.203 84.993 102.064L87.6713 97.2364C87.9675 96.7024 88.4638 96.308 89.0508 96.1399C89.8892 95.8998 90.7913 96.154 91.3809 96.7965L93.8798 99.5193C93.9609 99.6077 94.085 99.6427 94.2004 99.6096L99.5922 98.0656C100.296 97.8641 100.703 97.1301 100.502 96.4263C99.0206 91.2541 98.764 85.8082 99.7524 80.5197C101.019 73.7442 102.906 66.7124 99.8638 60.0983L97.4799 54.9158C96.7279 53.2808 94.8951 52.4394 93.165 52.9348L92.5348 53.1153C90.9475 53.5698 90.0293 55.225 90.4838 56.8123L91.1313 59.0736C91.2282 59.412 91.0325 59.7649 90.6941 59.8618C90.3557 59.9587 90.0028 59.7629 89.9059 59.4245L88.4354 54.2892C87.7127 51.7654 85.0809 50.3054 82.5572 51.0281C80.0334 51.7508 78.5734 54.3825 79.2961 56.9063L80.7949 62.1404C80.9756 62.7713 80.6106 63.4293 79.9797 63.61C79.3487 63.7906 78.6908 63.4256 78.5101 62.7947L77.0113 57.5606C76.2886 55.0368 73.6568 53.5768 71.1331 54.2995C68.6094 55.0222 67.1493 57.6539 67.872 60.1777L69.7576 66.7624C69.8084 66.9398 69.8172 67.1265 69.7833 67.3079C69.6034 68.2704 68.4018 68.6145 67.7397 67.8931C67.615 67.7571 67.5236 67.5941 67.4728 67.4167L61.0073 44.8382C60.1544 41.86 56.6166 38.679 53.3324 39.6195C50.0482 40.5599 48.7304 45.1314 49.5832 48.1096L57.6738 76.363C57.903 77.1634 57.4399 77.998 56.6396 78.2272C56.1224 78.3753 55.5674 78.2384 55.1756 77.8698C53.873 76.6446 50.8674 73.88 49.2715 72.9206C48.3719 72.3798 46.8409 72.2474 45.3951 72.2709C43.1532 72.3075 41.3345 73.9397 40.6524 76.0757C39.7823 78.8003 40.9563 81.7604 43.4574 83.148L48.2839 85.8256C50.0124 86.7845 51.4939 88.1328 52.6111 89.7635L53.0361 90.3838C54.4328 92.4226 56.285 94.1081 58.446 95.3069L66.0503 99.5257C68.4867 100.877 70.2863 103.141 71.0533 105.82C71.1144 106.033 71.3369 106.157 71.5503 106.096Z" stroke="#0F121A" stroke-width="2.19678"/>
    </g>
    <line x1="70.9309" y1="75.9066" x2="75.9667" y2="93.4923" stroke="#0F121A" stroke-width="2.19678"/>
    <line x1="79.9485" y1="73.3236" x2="84.9843" y2="90.9092" stroke="#0F121A" stroke-width="2.19678"/>
    <line x1="89.1927" y1="70.6752" x2="94.2285" y2="88.2608" stroke="#0F121A" stroke-width="2.19678"/>
    <defs>
        <filter id="filter0_d_19_3150" x="32.3131" y="35.0574" width="73.5817" height="79.109" filterUnits="userSpaceOnUse" color-interpolation-filters="sRGB">
            <feFlood flood-opacity="0" result="BackgroundImageFix"/>
            <feColorMatrix in="SourceAlpha" type="matrix" values="0 0 0 0 0 0 0 0 0 0 0 0 0 0 0 0 0 0 127 0" result="hardAlpha"/>
            <feOffset dx="-1.83065" dy="1.83065"/>
            <feGaussianBlur stdDeviation="2.56291"/>
            <feColorMatrix type="matrix" values="0 0 0 0 0 0 0 0 0 0 0 0 0 0 0 0 0 0 0.6 0"/>
            <feBlend mode="normal" in2="BackgroundImageFix" result="effect1_dropShadow_19_3150"/>
            <feBlend mode="normal" in="SourceGraphic" in2="effect1_dropShadow_19_3150" result="shape"/>
        </filter>
    </defs>
</svg>
