<svg width="216" height="54" viewBox="0 0 216 54" fill="none" xmlns="http://www.w3.org/2000/svg">
<path d="M18 43.5H34.242L37.2994 37.5H48" stroke="url(#paint0_linear_3_3760)" stroke-width="2"/>
<g clip-path="url(#clip0_3_3760)">
</g>
<rect x="9.5" y="39" width="9" height="9" rx="4.5" stroke="url(#paint1_linear_3_3760)"/>
<path d="M7 29.5H12.8303L15.6514 34.5H27.1239L29.945 30.5345H47.8119H48" stroke="url(#paint2_linear_3_3760)" stroke-width="2"/>
<rect x="0.5" y="26" width="7" height="7" rx="3.5" stroke="url(#paint3_linear_3_3760)"/>
<path d="M28 22.5H48" stroke="url(#paint4_linear_3_3760)" stroke-width="2"/>
<rect x="19.5" y="18" width="9" height="9" rx="4.5" stroke="url(#paint5_linear_3_3760)"/>
<path d="M17 9.5H25.2059L28.6706 15.5H48" stroke="url(#paint6_linear_3_3760)" stroke-width="2"/>
<g clip-path="url(#clip1_3_3760)">
</g>
<rect x="10.5" y="6" width="7" height="7" rx="3.5" stroke="url(#paint7_linear_3_3760)"/>
<path d="M69.6777 18.4473C69.541 18.3926 69.377 18.2969 69.1855 18.1602C68.9941 18.0234 68.7207 17.9004 68.3652 17.791C68.0098 17.6543 67.5586 17.5449 67.0117 17.4629C66.4648 17.3809 65.7676 17.3672 64.9199 17.4219V13.2793C66.123 13.3066 67.3398 13.4434 68.5703 13.6895C69.8281 13.9082 70.8398 14.2637 71.6055 14.7559C71.4414 15.1113 71.25 15.5078 71.0312 15.9453C70.8125 16.3555 70.6074 16.752 70.416 17.1348C70.2246 17.4902 70.0605 17.791 69.9238 18.0371C69.7871 18.2832 69.7051 18.4199 69.6777 18.4473ZM55.5273 21.7285C55.5273 20.5254 55.7324 19.4453 56.1426 18.4883C56.5527 17.5312 57.0996 16.6973 57.7832 15.9863C58.4941 15.248 59.3145 14.6738 60.2441 14.2637C61.2012 13.8262 62.1992 13.5391 63.2383 13.4023V17.709C62.3633 18.0098 61.6387 18.543 61.0645 19.3086C60.4902 20.0469 60.2031 20.7988 60.2031 21.5645C60.2031 22.6309 60.4902 23.4922 61.0645 24.1484C61.6387 24.8047 62.3633 25.3789 63.2383 25.8711V30.5469C62.3359 30.1094 61.4336 29.6445 60.5312 29.1523C59.6289 28.6328 58.8086 28.0312 58.0703 27.3477C57.332 26.6641 56.7168 25.8711 56.2246 24.9688C55.7598 24.0664 55.5273 22.9863 55.5273 21.7285ZM56.1836 38.4629C56.5664 38.6816 57.0449 38.9004 57.6191 39.1191C58.2207 39.3105 58.8359 39.502 59.4648 39.6934C60.0938 39.8574 60.7227 39.9941 61.3516 40.1035C61.9805 40.2129 62.5684 40.2676 63.1152 40.2676H63.2383V44.1641H63.1562C62.5 44.1641 61.8164 44.123 61.1055 44.041C60.4219 43.9863 59.7246 43.877 59.0137 43.7129C58.3027 43.5488 57.6191 43.3301 56.9629 43.0566C56.334 42.7559 55.7871 42.4004 55.3223 41.9902L56.1836 38.4629ZM64.9199 26.6914C65.8223 27.1016 66.7383 27.5391 67.668 28.0039C68.625 28.4688 69.4863 29.043 70.252 29.7266C71.0176 30.3828 71.6465 31.1895 72.1387 32.1465C72.6309 33.1035 72.877 34.293 72.877 35.7148C72.877 36.6992 72.6855 37.6562 72.3027 38.5859C71.9473 39.5156 71.4277 40.3633 70.7441 41.1289C70.0879 41.8672 69.2676 42.4961 68.2832 43.0156C67.2988 43.5352 66.1777 43.877 64.9199 44.041V40.1035C67.1621 39.5566 68.2832 38.0664 68.2832 35.6328C68.2832 34.6758 67.9688 33.8828 67.3398 33.2539C66.7109 32.625 65.9043 32.0371 64.9199 31.4902V26.6914ZM82.2285 20.8672L82.7617 23.2051V53.1055H77.7578V20.8672H82.2285ZM97.9785 27.8809C98.3066 29.1387 98.4707 30.5469 98.4707 32.1055C98.4707 33.6641 98.2793 35.1816 97.8965 36.6582C97.541 38.1074 96.9805 39.3926 96.2148 40.5137C95.4766 41.6348 94.5332 42.5371 93.3848 43.2207C92.2637 43.877 90.9375 44.2051 89.4062 44.2051C88.4492 44.2051 87.5332 44.0957 86.6582 43.877C85.8105 43.6582 85.0723 43.3711 84.4434 43.0156V38.75C85.3457 39.8164 86.4531 40.3496 87.7656 40.3496C88.5859 40.3496 89.3242 40.1445 89.9805 39.7344C90.6641 39.3242 91.2383 38.7773 91.7031 38.0938C92.1953 37.3828 92.5781 36.5488 92.8516 35.5918C93.125 34.6074 93.2617 33.5684 93.2617 32.4746C93.2617 31.4082 93.1387 30.3965 92.8926 29.4395C92.6465 28.4824 92.291 27.6348 91.8262 26.8965C91.3887 26.1582 90.8418 25.5703 90.1855 25.1328C89.5566 24.6953 88.8184 24.4766 87.9707 24.4766C87.2598 24.4766 86.6035 24.627 86.002 24.9277C85.4277 25.2012 84.9082 25.5977 84.4434 26.1172V21.7695C85.0723 21.4141 85.7695 21.1406 86.5352 20.9492C87.3008 20.7578 88.0938 20.6621 88.9141 20.6621C89.8164 20.6621 90.7324 20.7852 91.6621 21.0312C92.5918 21.2773 93.4531 21.6875 94.2461 22.2617C95.0664 22.8359 95.8047 23.5879 96.4609 24.5176C97.1172 25.4473 97.623 26.5684 97.9785 27.8809ZM114.877 20.7441C116.381 20.8262 117.748 21.1953 118.979 21.8516C120.209 22.4805 121.234 23.3281 122.055 24.3945C122.902 25.4336 123.559 26.6504 124.023 28.0449C124.488 29.4395 124.721 30.9297 124.721 32.5156C124.721 34.1016 124.475 35.5918 123.982 36.9863C123.518 38.3535 122.861 39.5566 122.014 40.5957C121.166 41.6074 120.127 42.4277 118.896 43.0566C117.666 43.6855 116.326 44.0547 114.877 44.1641V40.2266C116.244 39.9258 117.352 39.0645 118.199 37.6426C119.074 36.2207 119.512 34.5117 119.512 32.5156C119.512 31.5039 119.402 30.5605 119.184 29.6855C118.992 28.7832 118.691 27.9766 118.281 27.2656C117.871 26.5547 117.379 25.9668 116.805 25.502C116.23 25.0371 115.588 24.7363 114.877 24.5996V20.7441ZM103.434 32.4336C103.434 30.8477 103.666 29.3711 104.131 28.0039C104.596 26.6367 105.252 25.4473 106.1 24.4355C106.975 23.3965 108.014 22.5625 109.217 21.9336C110.42 21.3047 111.746 20.9219 113.195 20.7852V24.5996C111.828 24.9004 110.734 25.7617 109.914 27.1836C109.094 28.6055 108.684 30.3145 108.684 32.3105C108.684 33.3223 108.779 34.2793 108.971 35.1816C109.189 36.084 109.49 36.8906 109.873 37.6016C110.256 38.3125 110.721 38.9004 111.268 39.3652C111.842 39.8301 112.484 40.1172 113.195 40.2266V44.1641C111.691 44.0547 110.338 43.6855 109.135 43.0566C107.932 42.4004 106.906 41.5527 106.059 40.5137C105.211 39.4746 104.555 38.2578 104.09 36.8633C103.652 35.4688 103.434 33.9922 103.434 32.4336ZM137.764 36.9863C137.764 37.916 137.887 38.6406 138.133 39.1602C138.379 39.6797 138.721 40.0762 139.158 40.3496C139.623 40.623 140.129 40.8008 140.676 40.8828C141.25 40.9375 141.852 40.9648 142.48 40.9648V44C142.125 44.0547 141.77 44.0957 141.414 44.123C141.113 44.1504 140.744 44.1641 140.307 44.1641C139.896 44.1914 139.486 44.2051 139.076 44.2051C138.666 44.2051 138.242 44.1914 137.805 44.1641C137.395 44.1367 137.039 44.0957 136.738 44.041C135.809 43.877 135.084 43.4805 134.564 42.8516C134.045 42.1953 133.648 41.4844 133.375 40.7188C133.129 39.9258 132.965 39.1602 132.883 38.4219C132.828 37.6836 132.801 37.1094 132.801 36.6992V24.2305H129.766V20.8672H132.801V14.3047H137.764V20.8672H141.455V24.2305H137.764V36.9863ZM152.734 20.8672L153.268 23.2051V44H148.305V20.8672H152.734ZM165.531 23.4102C165.996 23.875 166.352 24.4219 166.598 25.0508C166.871 25.6523 167.062 26.2949 167.172 26.9785C167.309 27.6348 167.391 28.3047 167.418 28.9883C167.445 29.6719 167.459 30.3418 167.459 30.998V43.1797V44H162.455V31.4082C162.455 30.4785 162.414 29.5898 162.332 28.7422C162.25 27.8945 162.059 27.1426 161.758 26.4863C161.457 25.8301 161.047 25.3242 160.527 24.9688C160.008 24.5859 159.283 24.3945 158.354 24.3945C157.971 24.3945 157.451 24.4629 156.795 24.5996C156.166 24.709 155.551 24.9004 154.949 25.1738V22.0156C155.688 21.6328 156.48 21.3047 157.328 21.0312C158.203 20.7578 159.051 20.6211 159.871 20.6211C161.102 20.6211 162.141 20.8809 162.988 21.4004C163.836 21.8926 164.684 22.5625 165.531 23.4102ZM185.055 20.6621C186.531 20.7988 187.857 21.1953 189.033 21.8516C190.236 22.5078 191.262 23.3555 192.109 24.3945C192.957 25.4336 193.6 26.623 194.037 27.9629C194.502 29.3027 194.734 30.6973 194.734 32.1465C194.734 32.8027 194.693 33.459 194.611 34.1152H180.543V30.5059H190.018C190.018 29.7949 189.895 29.1113 189.648 28.4551C189.43 27.7988 189.088 27.1973 188.623 26.6504C188.186 26.0762 187.666 25.5977 187.064 25.2148C186.463 24.832 185.793 24.5996 185.055 24.5176V20.6621ZM184.891 40.1445C185.191 40.1445 185.561 40.1172 185.998 40.0625C186.463 39.9805 186.941 39.8574 187.434 39.6934C187.953 39.502 188.459 39.2695 188.951 38.9961C189.471 38.7227 189.922 38.3945 190.305 38.0117L192.109 40.7598C191.207 41.8809 190.154 42.7285 188.951 43.3027C187.748 43.877 186.217 44.1641 184.357 44.1641C182.854 44.1641 181.445 43.8633 180.133 43.2617C178.82 42.6328 177.699 41.7852 176.77 40.7188C175.84 39.6523 175.102 38.4082 174.555 36.9863C174.008 35.5645 173.734 34.0332 173.734 32.3926C173.734 30.834 173.98 29.3574 174.473 27.9629C174.992 26.5684 175.689 25.3516 176.564 24.3125C177.439 23.2461 178.451 22.3848 179.6 21.7285C180.775 21.0723 182.033 20.7031 183.373 20.6211V24.5586C182.361 24.75 181.527 25.1602 180.871 25.7891C180.215 26.418 179.695 27.1426 179.312 27.9629C178.957 28.7559 178.697 29.5762 178.533 30.4238C178.396 31.2715 178.328 31.9961 178.328 32.5977C178.328 33.6641 178.451 34.6621 178.697 35.5918C178.971 36.4941 179.381 37.2871 179.928 37.9707C180.475 38.627 181.145 39.1602 181.938 39.5703C182.758 39.9531 183.742 40.1445 184.891 40.1445ZM208.146 36.9863C208.146 37.916 208.27 38.6406 208.516 39.1602C208.762 39.6797 209.104 40.0762 209.541 40.3496C210.006 40.623 210.512 40.8008 211.059 40.8828C211.633 40.9375 212.234 40.9648 212.863 40.9648V44C212.508 44.0547 212.152 44.0957 211.797 44.123C211.496 44.1504 211.127 44.1641 210.689 44.1641C210.279 44.1914 209.869 44.2051 209.459 44.2051C209.049 44.2051 208.625 44.1914 208.188 44.1641C207.777 44.1367 207.422 44.0957 207.121 44.041C206.191 43.877 205.467 43.4805 204.947 42.8516C204.428 42.1953 204.031 41.4844 203.758 40.7188C203.512 39.9258 203.348 39.1602 203.266 38.4219C203.211 37.6836 203.184 37.1094 203.184 36.6992V24.2305H200.148V20.8672H203.184V14.3047H208.146V20.8672H211.838V24.2305H208.146V36.9863Z" fill="#74D6FD"/>
<defs>
<linearGradient id="paint0_linear_3_3760" x1="17.9227" y1="43.152" x2="30.3632" y2="24.7022" gradientUnits="userSpaceOnUse">
<stop offset="0.155" stop-color="#E01DEE"/>
<stop offset="1" stop-color="#62D1FC"/>
</linearGradient>
<linearGradient id="paint1_linear_3_3760" x1="8.97423" y1="47.9201" x2="21.1689" y2="44.303" gradientUnits="userSpaceOnUse">
<stop stop-color="white"/>
<stop offset="0.0001" stop-color="#E01DEE"/>
<stop offset="1" stop-color="#62D1FC"/>
</linearGradient>
<linearGradient id="paint2_linear_3_3760" x1="6.89432" y1="34.21" x2="14.7602" y2="15.0788" gradientUnits="userSpaceOnUse">
<stop stop-color="white"/>
<stop offset="0.135" stop-color="#E01DEE"/>
<stop offset="1" stop-color="#62D1FC"/>
</linearGradient>
<linearGradient id="paint3_linear_3_3760" x1="-0.0206196" y1="33.0361" x2="9.7351" y2="30.1424" gradientUnits="userSpaceOnUse">
<stop stop-color="white"/>
<stop offset="0.135" stop-color="#E01DEE"/>
<stop offset="1" stop-color="#62D1FC"/>
</linearGradient>
<linearGradient id="paint4_linear_3_3760" x1="27.9485" y1="23.442" x2="28.6816" y2="19.0925" gradientUnits="userSpaceOnUse">
<stop stop-color="white"/>
<stop offset="0.135" stop-color="#E01DEE"/>
<stop offset="1" stop-color="#62D1FC"/>
</linearGradient>
<linearGradient id="paint5_linear_3_3760" x1="18.9742" y1="26.9201" x2="31.1689" y2="23.303" gradientUnits="userSpaceOnUse">
<stop stop-color="white"/>
<stop offset="0.135" stop-color="#E01DEE"/>
<stop offset="1" stop-color="#62D1FC"/>
</linearGradient>
<linearGradient id="paint6_linear_3_3760" x1="16.9201" y1="15.152" x2="29.203" y2="-3.67127" gradientUnits="userSpaceOnUse">
<stop stop-color="white"/>
<stop offset="0.135" stop-color="#E01DEE"/>
<stop offset="1" stop-color="#62D1FC"/>
</linearGradient>
<linearGradient id="paint7_linear_3_3760" x1="9.97938" y1="13.0361" x2="19.7351" y2="10.1424" gradientUnits="userSpaceOnUse">
<stop stop-color="white"/>
<stop offset="0.135" stop-color="#E01DEE"/>
<stop offset="1" stop-color="#62D1FC"/>
</linearGradient>
<clipPath id="clip0_3_3760">
<rect x="9" y="38.5" width="10" height="10" rx="5" fill="white"/>
</clipPath>
<clipPath id="clip1_3_3760">
<rect x="10" y="5.5" width="8" height="8" rx="4" fill="white"/>
</clipPath>
</defs>
</svg>
