<svg width="40" height="40" viewBox="0 0 40 40" fill="none" xmlns="http://www.w3.org/2000/svg">
<g clip-path="url(#clip0_2399_46)">
<mask id="mask0_2399_46" style="mask-type:alpha" maskUnits="userSpaceOnUse" x="0" y="0" width="40" height="40">
<path d="M0 19.9999C0 31.0459 8.95405 40 19.9997 40C31.0455 40 40 31.0456 40 19.9999C40 8.9542 31.0455 0 19.9997 0C8.95405 0 0 8.95417 0 19.9999Z" fill="#0C0C4F"/>
</mask>
<g mask="url(#mask0_2399_46)">
<path d="M0 19.9999C0 31.0459 8.95405 40 19.9997 40C31.0455 40 40 31.0456 40 19.9999C40 8.9542 31.0455 0 19.9997 0C8.95405 0 0 8.95417 0 19.9999Z" fill="url(#paint0_linear_2399_46)"/>
<path fill-rule="evenodd" clip-rule="evenodd" d="M16 13C16 11.3431 17.3431 10 19 10H55V16H22V25C22 26.6569 20.6569 28 19 28H-1V22H16V13Z" fill="#FAFAFA"/>
<path d="M0 26H20V14H56" stroke="#FAFAFA" stroke-linejoin="round"/>
<path fill-rule="evenodd" clip-rule="evenodd" d="M21 15C26 15 55.3431 15 57 15V18H24V27C24 28.6569 22.6569 30 21 30H1V27H21V15Z" fill="#FAFAFA"/>
<path fill-rule="evenodd" clip-rule="evenodd" d="M21 15C26 15 55.3431 15 57 15V18H24V27C24 28.6569 22.6569 30 21 30H1V27H21V15Z" fill="url(#paint1_linear_2399_46)"/>
<path fill-rule="evenodd" clip-rule="evenodd" d="M0 20C0 8.95419 8.95405 0 19.9997 0C31.0455 0 40 8.95418 40 20C40 31.0456 31.0455 40 19.9997 40C8.95405 40 0 31.0458 0 20ZM19.9997 1.78661C9.94079 1.78661 1.78661 9.94089 1.78661 20C1.78661 30.0592 9.9408 38.2134 19.9997 38.2134C30.0588 38.2134 38.2134 30.0589 38.2134 20C38.2134 9.94094 30.0588 1.78661 19.9997 1.78661Z" fill="url(#paint2_linear_2399_46)"/>
<path fill-rule="evenodd" clip-rule="evenodd" d="M11.3534 15.382L11.8373 13.887C11.9357 13.5829 12.1756 13.3463 12.4808 13.253L13.9831 12.791C14.1911 12.7275 14.1928 12.4341 13.9865 12.3672L12.491 11.8833C12.1875 11.7849 11.9508 11.5449 11.857 11.2397L11.3955 9.73744C11.332 9.53005 11.0387 9.52779 10.9718 9.73461L10.4879 11.2296C10.3895 11.5331 10.1495 11.7698 9.84435 11.8636L8.34205 12.325C8.13411 12.3891 8.13185 12.6819 8.33867 12.7488L9.83423 13.2327C10.1377 13.3311 10.3744 13.5716 10.4682 13.8768L10.9296 15.3786C10.9931 15.5865 11.2865 15.5888 11.3534 15.382Z" fill="#FAFAFA"/>
<path fill-rule="evenodd" clip-rule="evenodd" d="M27.7125 28.4614C27.7125 29.6947 28.7128 30.6947 29.9458 30.6947C31.179 30.6947 32.1778 29.6947 32.1778 28.4614C32.1778 27.2284 31.179 26.2281 29.9458 26.2281C28.7128 26.2281 27.7125 27.2284 27.7125 28.4614Z" fill="#FAFAFA"/>
</g>
</g>
<defs>
<linearGradient id="paint0_linear_2399_46" x1="20" y1="38.5" x2="20" y2="-2" gradientUnits="userSpaceOnUse">
<stop stop-color="#050838"/>
<stop offset="1" stop-color="#5284D6"/>
</linearGradient>
<linearGradient id="paint1_linear_2399_46" x1="3.11052e-09" y1="20.5" x2="40" y2="20.5" gradientUnits="userSpaceOnUse">
<stop stop-color="#16B8C6"/>
<stop offset="0.5" stop-color="#255CB5"/>
<stop offset="1" stop-color="#16B8C6"/>
</linearGradient>
<linearGradient id="paint2_linear_2399_46" x1="36.5" y1="7" x2="-1.5" y2="45.5" gradientUnits="userSpaceOnUse">
<stop stop-color="#2232C3"/>
<stop offset="1" stop-color="#5284D6"/>
</linearGradient>
<clipPath id="clip0_2399_46">
<rect width="40" height="40" fill="white"/>
</clipPath>
</defs>
</svg>
