<svg width="1440" height="1099" viewBox="0 0 1440 1099" fill="none" xmlns="http://www.w3.org/2000/svg">
<g clip-path="url(#clip0_9_1458)">
<rect width="1440" height="1099" fill="#0B0C10"/>
<path fill-rule="evenodd" clip-rule="evenodd" d="M525.163 945.782C525.441 943.597 525.441 940.773 525.441 937H525.559C525.559 940.773 525.559 943.597 525.837 945.782C526.115 947.966 526.67 949.503 527.773 950.707C527.938 950.888 528.112 951.062 528.293 951.227C529.497 952.33 531.034 952.885 533.218 953.163C535.403 953.441 538.227 953.441 542 953.441V953.559C538.227 953.559 535.403 953.559 533.218 953.837C531.034 954.115 529.497 954.67 528.293 955.773C528.112 955.938 527.938 956.112 527.773 956.293C526.67 957.497 526.115 959.034 525.837 961.218C525.559 963.403 525.559 966.227 525.559 970H525.441C525.441 966.227 525.441 963.403 525.163 961.218C524.885 959.034 524.33 957.497 523.227 956.293C523.062 956.112 522.888 955.938 522.707 955.773C521.503 954.67 519.966 954.115 517.782 953.837C515.597 953.559 512.773 953.559 509 953.559V953.441C512.773 953.441 515.597 953.441 517.782 953.163C519.966 952.885 521.503 952.33 522.707 951.227C522.888 951.062 523.062 950.888 523.227 950.707C524.33 949.503 524.885 947.966 525.163 945.782ZM514.802 953.5C515.918 953.54 516.91 953.607 517.797 953.72C519.993 954 521.558 954.56 522.787 955.686C522.97 955.854 523.146 956.03 523.314 956.213C524.44 957.442 525 959.007 525.28 961.203C525.393 962.09 525.46 963.082 525.5 964.198C525.54 963.082 525.607 962.09 525.72 961.203C526 959.007 526.56 957.442 527.686 956.213C527.854 956.03 528.03 955.854 528.213 955.686C529.442 954.56 531.007 954 533.203 953.72C534.09 953.607 535.082 953.54 536.198 953.5C535.082 953.46 534.09 953.393 533.203 953.28C531.007 953 529.442 952.44 528.213 951.314C528.03 951.146 527.854 950.97 527.686 950.787C526.56 949.558 526 947.993 525.72 945.797C525.607 944.91 525.54 943.918 525.5 942.802C525.46 943.918 525.393 944.91 525.28 945.797C525 947.993 524.44 949.558 523.314 950.787C523.146 950.97 522.97 951.146 522.787 951.314C521.558 952.44 519.993 953 517.797 953.28C516.91 953.393 515.918 953.46 514.802 953.5Z" fill="#D0F5FF"/>
<path d="M517.797 953.72C516.91 953.607 515.918 953.54 514.802 953.5C515.918 953.46 516.91 953.393 517.797 953.28C519.993 953 521.558 952.44 522.787 951.314C522.97 951.146 523.146 950.97 523.314 950.787C524.44 949.558 525 947.993 525.28 945.797C525.393 944.91 525.46 943.918 525.5 942.802C525.54 943.918 525.607 944.91 525.72 945.797C526 947.993 526.56 949.558 527.686 950.787C527.854 950.97 528.03 951.146 528.213 951.314C529.442 952.44 531.007 953 533.203 953.28C534.09 953.393 535.082 953.46 536.198 953.5C535.082 953.54 534.09 953.607 533.203 953.72C531.007 954 529.442 954.56 528.213 955.686C528.03 955.854 527.854 956.03 527.686 956.213C526.56 957.442 526 959.007 525.72 961.203C525.607 962.09 525.54 963.082 525.5 964.198C525.46 963.082 525.393 962.09 525.28 961.203C525 959.007 524.44 957.442 523.314 956.213C523.146 956.03 522.97 955.854 522.787 955.686C521.558 954.56 519.993 954 517.797 953.72Z" fill="#D0F5FF"/>
<path fill-rule="evenodd" clip-rule="evenodd" d="M1405.33 176.565C1405.88 172.194 1405.88 166.546 1405.88 159H1406.12C1406.12 166.546 1406.12 172.194 1406.67 176.565C1407.23 180.932 1408.34 184.007 1410.55 186.415C1410.88 186.776 1411.22 187.123 1411.59 187.454C1413.99 189.661 1417.07 190.77 1421.44 191.326C1425.81 191.882 1431.45 191.882 1439 191.882V192.118C1431.45 192.118 1425.81 192.118 1421.44 192.674C1417.07 193.23 1413.99 194.339 1411.59 196.546C1411.22 196.877 1410.88 197.224 1410.55 197.585C1408.34 199.993 1407.23 203.068 1406.67 207.435C1406.12 211.806 1406.12 217.454 1406.12 225H1405.88C1405.88 217.454 1405.88 211.806 1405.33 207.435C1404.77 203.068 1403.66 199.993 1401.45 197.585C1401.12 197.224 1400.78 196.877 1400.41 196.546C1398.01 194.339 1394.93 193.23 1390.56 192.674C1386.19 192.118 1380.55 192.118 1373 192.118V191.882C1380.55 191.882 1386.19 191.882 1390.56 191.326C1394.93 190.77 1398.01 189.661 1400.41 187.454C1400.78 187.123 1401.12 186.776 1401.45 186.415C1403.66 184.007 1404.77 180.932 1405.33 176.565ZM1384.6 192C1386.84 192.08 1388.82 192.215 1390.59 192.44C1394.99 192.999 1398.12 194.119 1400.57 196.372C1400.94 196.708 1401.29 197.06 1401.63 197.426C1403.88 199.884 1405 203.014 1405.56 207.406C1405.79 209.18 1405.92 211.164 1406 213.396C1406.08 211.164 1406.21 209.18 1406.44 207.406C1407 203.014 1408.12 199.884 1410.37 197.426C1410.71 197.06 1411.06 196.708 1411.43 196.372C1413.88 194.119 1417.01 192.999 1421.41 192.44C1423.18 192.215 1425.16 192.08 1427.4 192C1425.16 191.92 1423.18 191.785 1421.41 191.56C1417.01 191.001 1413.88 189.881 1411.43 187.628C1411.06 187.292 1410.71 186.94 1410.37 186.574C1408.12 184.116 1407 180.986 1406.44 176.594C1406.21 174.82 1406.08 172.836 1406 170.604C1405.92 172.836 1405.79 174.82 1405.56 176.594C1405 180.986 1403.88 184.116 1401.63 186.574C1401.29 186.94 1400.94 187.292 1400.57 187.628C1398.12 189.881 1394.99 191.001 1390.59 191.56C1388.82 191.785 1386.84 191.92 1384.6 192Z" fill="#D0F5FF"/>
<path d="M1390.59 192.44C1388.82 192.215 1386.84 192.08 1384.6 192C1386.84 191.92 1388.82 191.785 1390.59 191.56C1394.99 191.001 1398.12 189.881 1400.57 187.628C1400.94 187.292 1401.29 186.94 1401.63 186.574C1403.88 184.116 1405 180.986 1405.56 176.594C1405.79 174.82 1405.92 172.836 1406 170.604C1406.08 172.836 1406.21 174.82 1406.44 176.594C1407 180.986 1408.12 184.116 1410.37 186.574C1410.71 186.94 1411.06 187.292 1411.43 187.628C1413.88 189.881 1417.01 191.001 1421.41 191.56C1423.18 191.785 1425.16 191.92 1427.4 192C1425.16 192.08 1423.18 192.215 1421.41 192.44C1417.01 192.999 1413.88 194.119 1411.43 196.372C1411.06 196.708 1410.71 197.06 1410.37 197.426C1408.12 199.884 1407 203.014 1406.44 207.406C1406.21 209.18 1406.08 211.164 1406 213.396C1405.92 211.164 1405.79 209.18 1405.56 207.406C1405 203.014 1403.88 199.884 1401.63 197.426C1401.29 197.06 1400.94 196.708 1400.57 196.372C1398.12 194.119 1394.99 192.999 1390.59 192.44Z" fill="#D0F5FF"/>
<path fill-rule="evenodd" clip-rule="evenodd" d="M54.857 157.726C54.975 156.799 54.975 155.601 54.975 154H55.025C55.025 155.601 55.025 156.799 55.143 157.726C55.2609 158.652 55.4962 159.304 55.9642 159.815C56.0345 159.892 56.1081 159.965 56.1848 160.036C56.6955 160.504 57.3477 160.739 58.2742 160.857C59.2012 160.975 60.3993 160.975 62 160.975V161.025C60.3993 161.025 59.2012 161.025 58.2742 161.143C57.3477 161.261 56.6955 161.496 56.1848 161.964C56.1081 162.035 56.0345 162.108 55.9642 162.185C55.4962 162.696 55.2609 163.348 55.143 164.274C55.025 165.201 55.025 166.399 55.025 168H54.975C54.975 166.399 54.975 165.201 54.857 164.274C54.7391 163.348 54.5038 162.696 54.0358 162.185C53.9655 162.108 53.8919 162.035 53.8152 161.964C53.3045 161.496 52.6523 161.261 51.7258 161.143C50.7988 161.025 49.6007 161.025 48 161.025V160.975C49.6007 160.975 50.7988 160.975 51.7258 160.857C52.6523 160.739 53.3045 160.504 53.8152 160.036C53.8919 159.965 53.9655 159.892 54.0358 159.815C54.5038 159.304 54.7391 158.652 54.857 157.726ZM50.4614 161C50.9349 161.017 51.3557 161.046 51.7321 161.093C52.6637 161.212 53.3276 161.45 53.849 161.927C53.9268 161.999 54.0014 162.073 54.0726 162.151C54.5504 162.672 54.788 163.336 54.9066 164.268C54.9545 164.644 54.983 165.065 55 165.539C55.017 165.065 55.0455 164.644 55.0934 164.268C55.212 163.336 55.4496 162.672 55.9274 162.151C55.9986 162.073 56.0732 161.999 56.151 161.927C56.6724 161.45 57.3363 161.212 58.2679 161.093C58.6443 161.046 59.0651 161.017 59.5386 161C59.0651 160.983 58.6443 160.954 58.2679 160.907C57.3363 160.788 56.6724 160.55 56.151 160.073C56.0732 160.001 55.9986 159.927 55.9274 159.849C55.4496 159.328 55.212 158.664 55.0934 157.732C55.0455 157.356 55.017 156.935 55 156.461C54.983 156.935 54.9545 157.356 54.9066 157.732C54.788 158.664 54.5504 159.328 54.0726 159.849C54.0014 159.927 53.9268 160.001 53.849 160.073C53.3276 160.55 52.6637 160.788 51.7321 160.907C51.3557 160.954 50.9349 160.983 50.4614 161Z" fill="#D0F5FF"/>
<path d="M51.7321 161.093C51.3557 161.046 50.9349 161.017 50.4614 161C50.9349 160.983 51.3557 160.954 51.7321 160.907C52.6637 160.788 53.3276 160.55 53.849 160.073C53.9268 160.001 54.0014 159.927 54.0726 159.849C54.5504 159.328 54.788 158.664 54.9066 157.732C54.9545 157.356 54.983 156.935 55 156.461C55.017 156.935 55.0455 157.356 55.0934 157.732C55.212 158.664 55.4496 159.328 55.9274 159.849C55.9986 159.927 56.0732 160.001 56.151 160.073C56.6724 160.55 57.3363 160.788 58.2679 160.907C58.6443 160.954 59.0651 160.983 59.5386 161C59.0651 161.017 58.6443 161.046 58.2679 161.093C57.3363 161.212 56.6724 161.45 56.151 161.927C56.0732 161.999 55.9986 162.073 55.9274 162.151C55.4496 162.672 55.212 163.336 55.0934 164.268C55.0455 164.644 55.017 165.065 55 165.539C54.983 165.065 54.9545 164.644 54.9066 164.268C54.788 163.336 54.5504 162.672 54.0726 162.151C54.0014 162.073 53.9268 161.999 53.849 161.927C53.3276 161.45 52.6637 161.212 51.7321 161.093Z" fill="#D0F5FF"/>
<g filter="url(#filter0_f_9_1458)">
<rect x="862" y="981" width="218" height="84" rx="42" fill="url(#paint0_linear_9_1458)"/>
</g>
<g filter="url(#filter1_f_9_1458)">
<rect x="1243" y="161" width="332" height="128" rx="64" fill="url(#paint1_linear_9_1458)"/>
</g>
<g filter="url(#filter2_f_9_1458)">
<rect x="-166" y="396" width="332" height="128" rx="64" fill="url(#paint2_linear_9_1458)"/>
</g>
<path fill-rule="evenodd" clip-rule="evenodd" d="M131.959 870.105C132.405 866.595 132.405 862.06 132.405 856H132.595C132.595 862.06 132.595 866.595 133.041 870.105C133.488 873.612 134.379 876.081 136.15 878.015C136.416 878.305 136.695 878.584 136.985 878.85C138.919 880.621 141.388 881.512 144.895 881.959C148.405 882.405 152.94 882.405 159 882.405V882.595C152.94 882.595 148.405 882.595 144.895 883.041C141.388 883.488 138.919 884.379 136.985 886.15C136.695 886.416 136.416 886.695 136.15 886.985C134.379 888.919 133.488 891.388 133.041 894.895C132.595 898.405 132.595 902.94 132.595 909H132.405C132.405 902.94 132.405 898.405 131.959 894.895C131.512 891.388 130.621 888.919 128.85 886.985C128.584 886.695 128.305 886.416 128.015 886.15C126.081 884.379 123.612 883.488 120.105 883.041C116.595 882.595 112.06 882.595 106 882.595V882.405C112.06 882.405 116.595 882.405 120.105 881.959C123.612 881.512 126.081 880.621 128.015 878.85C128.305 878.584 128.584 878.305 128.85 878.015C130.621 876.081 131.512 873.612 131.959 870.105ZM115.318 882.5C117.111 882.564 118.704 882.672 120.129 882.854C123.656 883.302 126.169 884.202 128.143 886.011C128.437 886.28 128.72 886.563 128.989 886.857C130.798 888.831 131.698 891.344 132.146 894.871C132.328 896.296 132.436 897.889 132.5 899.682C132.564 897.889 132.672 896.296 132.854 894.871C133.302 891.344 134.202 888.831 136.011 886.857C136.28 886.563 136.563 886.28 136.857 886.011C138.831 884.202 141.344 883.302 144.871 882.854C146.296 882.672 147.889 882.564 149.682 882.5C147.889 882.436 146.296 882.328 144.871 882.146C141.344 881.698 138.831 880.798 136.857 878.989C136.563 878.72 136.28 878.437 136.011 878.143C134.202 876.169 133.302 873.656 132.854 870.129C132.672 868.704 132.564 867.111 132.5 865.318C132.436 867.111 132.328 868.704 132.146 870.129C131.698 873.656 130.798 876.169 128.989 878.143C128.72 878.437 128.437 878.72 128.143 878.989C126.169 880.798 123.656 881.698 120.129 882.146C118.704 882.328 117.111 882.436 115.318 882.5Z" fill="#D0F5FF"/>
<path d="M120.129 882.854C118.704 882.672 117.111 882.564 115.318 882.5C117.111 882.436 118.704 882.328 120.129 882.146C123.656 881.698 126.169 880.798 128.143 878.989C128.437 878.72 128.72 878.437 128.989 878.143C130.798 876.169 131.698 873.656 132.146 870.129C132.328 868.704 132.436 867.111 132.5 865.318C132.564 867.111 132.672 868.704 132.854 870.129C133.302 873.656 134.202 876.169 136.011 878.143C136.28 878.437 136.563 878.72 136.857 878.989C138.831 880.798 141.344 881.698 144.871 882.146C146.296 882.328 147.889 882.436 149.682 882.5C147.889 882.564 146.296 882.672 144.871 882.854C141.344 883.302 138.831 884.202 136.857 886.011C136.563 886.28 136.28 886.563 136.011 886.857C134.202 888.831 133.302 891.344 132.854 894.871C132.672 896.296 132.564 897.889 132.5 899.682C132.436 897.889 132.328 896.296 132.146 894.871C131.698 891.344 130.798 888.831 128.989 886.857C128.72 886.563 128.437 886.28 128.143 886.011C126.169 884.202 123.656 883.302 120.129 882.854Z" fill="#D0F5FF"/>
<path fill-rule="evenodd" clip-rule="evenodd" d="M215.468 389.879C216.319 383.191 216.32 374.548 216.32 363H216.68C216.68 374.548 216.681 383.191 217.532 389.879C218.382 396.563 220.08 401.268 223.456 404.953C223.963 405.506 224.494 406.037 225.047 406.544C228.732 409.92 233.437 411.618 240.121 412.468C246.809 413.319 255.452 413.32 267 413.32V413.68C255.452 413.68 246.809 413.681 240.121 414.532C233.437 415.382 228.732 417.08 225.047 420.456C224.494 420.963 223.963 421.494 223.456 422.047C220.08 425.732 218.382 430.437 217.532 437.121C216.681 443.809 216.68 452.452 216.68 464H216.32C216.32 452.452 216.319 443.809 215.468 437.121C214.618 430.437 212.92 425.732 209.544 422.047C209.037 421.494 208.506 420.963 207.953 420.456C204.268 417.08 199.563 415.382 192.879 414.532C186.191 413.681 177.548 413.68 166 413.68V413.32C177.548 413.32 186.191 413.319 192.879 412.468C199.563 411.618 204.268 409.92 207.953 406.544C208.506 406.037 209.037 405.506 209.544 404.953C212.92 401.268 214.618 396.563 215.468 389.879ZM183.757 413.5C187.173 413.623 190.209 413.828 192.925 414.174C199.646 415.029 204.435 416.743 208.196 420.19C208.757 420.704 209.296 421.243 209.81 421.804C213.257 425.565 214.971 430.354 215.826 437.075C216.172 439.791 216.377 442.827 216.5 446.243C216.623 442.827 216.828 439.791 217.174 437.075C218.029 430.354 219.743 425.565 223.19 421.804C223.704 421.243 224.243 420.704 224.804 420.19C228.565 416.743 233.354 415.029 240.075 414.174C242.791 413.828 245.827 413.623 249.243 413.5C245.827 413.377 242.791 413.172 240.075 412.826C233.354 411.971 228.565 410.257 224.804 406.81C224.243 406.296 223.704 405.757 223.19 405.196C219.743 401.435 218.029 396.646 217.174 389.925C216.828 387.209 216.623 384.173 216.5 380.757C216.377 384.173 216.172 387.209 215.826 389.925C214.971 396.646 213.257 401.435 209.81 405.196C209.296 405.757 208.757 406.296 208.196 406.81C204.435 410.257 199.646 411.971 192.925 412.826C190.209 413.172 187.173 413.377 183.757 413.5Z" fill="#D0F5FF"/>
<path d="M192.925 414.174C190.209 413.828 187.173 413.623 183.757 413.5C187.173 413.377 190.209 413.172 192.925 412.826C199.646 411.971 204.435 410.257 208.196 406.81C208.757 406.296 209.296 405.757 209.81 405.196C213.257 401.435 214.971 396.646 215.826 389.925C216.172 387.209 216.377 384.173 216.5 380.757C216.623 384.173 216.828 387.209 217.174 389.925C218.029 396.646 219.743 401.435 223.19 405.196C223.704 405.757 224.243 406.296 224.804 406.81C228.565 410.257 233.354 411.971 240.075 412.826C242.791 413.172 245.827 413.377 249.243 413.5C245.827 413.623 242.791 413.828 240.075 414.174C233.354 415.029 228.565 416.743 224.804 420.19C224.243 420.704 223.704 421.243 223.19 421.804C219.743 425.565 218.029 430.354 217.174 437.075C216.828 439.791 216.623 442.827 216.5 446.243C216.377 442.827 216.172 439.791 215.826 437.075C214.971 430.354 213.257 425.565 209.81 421.804C209.296 421.243 208.757 420.704 208.196 420.19C204.435 416.743 199.646 415.029 192.925 414.174Z" fill="#D0F5FF"/>
<path fill-rule="evenodd" clip-rule="evenodd" d="M1213.96 452.105C1214.41 448.595 1214.41 444.06 1214.41 438H1214.59C1214.59 444.06 1214.59 448.595 1215.04 452.105C1215.49 455.612 1216.38 458.081 1218.15 460.015C1218.42 460.305 1218.69 460.584 1218.99 460.85C1220.92 462.621 1223.39 463.512 1226.9 463.959C1230.4 464.405 1234.94 464.405 1241 464.405V464.595C1234.94 464.595 1230.4 464.595 1226.9 465.041C1223.39 465.488 1220.92 466.379 1218.99 468.15C1218.69 468.416 1218.42 468.695 1218.15 468.985C1216.38 470.919 1215.49 473.388 1215.04 476.895C1214.59 480.405 1214.59 484.94 1214.59 491H1214.41C1214.41 484.94 1214.41 480.405 1213.96 476.895C1213.51 473.388 1212.62 470.919 1210.85 468.985C1210.58 468.695 1210.31 468.416 1210.01 468.15C1208.08 466.379 1205.61 465.488 1202.1 465.041C1198.6 464.595 1194.06 464.595 1188 464.595V464.405C1194.06 464.405 1198.6 464.405 1202.1 463.959C1205.61 463.512 1208.08 462.621 1210.01 460.85C1210.31 460.584 1210.58 460.305 1210.85 460.015C1212.62 458.081 1213.51 455.612 1213.96 452.105ZM1197.32 464.5C1199.11 464.564 1200.7 464.672 1202.13 464.854C1205.66 465.302 1208.17 466.202 1210.14 468.011C1210.44 468.28 1210.72 468.563 1210.99 468.857C1212.8 470.831 1213.7 473.344 1214.15 476.871C1214.33 478.296 1214.44 479.889 1214.5 481.682C1214.56 479.889 1214.67 478.296 1214.85 476.871C1215.3 473.344 1216.2 470.831 1218.01 468.857C1218.28 468.563 1218.56 468.28 1218.86 468.011C1220.83 466.202 1223.34 465.302 1226.87 464.854C1228.3 464.672 1229.89 464.564 1231.68 464.5C1229.89 464.436 1228.3 464.328 1226.87 464.146C1223.34 463.698 1220.83 462.798 1218.86 460.989C1218.56 460.72 1218.28 460.437 1218.01 460.143C1216.2 458.169 1215.3 455.656 1214.85 452.129C1214.67 450.704 1214.56 449.111 1214.5 447.318C1214.44 449.111 1214.33 450.704 1214.15 452.129C1213.7 455.656 1212.8 458.169 1210.99 460.143C1210.72 460.437 1210.44 460.72 1210.14 460.989C1208.17 462.798 1205.66 463.698 1202.13 464.146C1200.7 464.328 1199.11 464.436 1197.32 464.5Z" fill="#D0F5FF"/>
<path d="M1202.13 464.854C1200.7 464.672 1199.11 464.564 1197.32 464.5C1199.11 464.436 1200.7 464.328 1202.13 464.146C1205.66 463.698 1208.17 462.798 1210.14 460.989C1210.44 460.72 1210.72 460.437 1210.99 460.143C1212.8 458.169 1213.7 455.656 1214.15 452.129C1214.33 450.704 1214.44 449.111 1214.5 447.318C1214.56 449.111 1214.67 450.704 1214.85 452.129C1215.3 455.656 1216.2 458.169 1218.01 460.143C1218.28 460.437 1218.56 460.72 1218.86 460.989C1220.83 462.798 1223.34 463.698 1226.87 464.146C1228.3 464.328 1229.89 464.436 1231.68 464.5C1229.89 464.564 1228.3 464.672 1226.87 464.854C1223.34 465.302 1220.83 466.202 1218.86 468.011C1218.56 468.28 1218.28 468.563 1218.01 468.857C1216.2 470.831 1215.3 473.344 1214.85 476.871C1214.67 478.296 1214.56 479.889 1214.5 481.682C1214.44 479.889 1214.33 478.296 1214.15 476.871C1213.7 473.344 1212.8 470.831 1210.99 468.857C1210.72 468.563 1210.44 468.28 1210.14 468.011C1208.17 466.202 1205.66 465.302 1202.13 464.854Z" fill="#D0F5FF"/>
<path fill-rule="evenodd" clip-rule="evenodd" d="M1368.37 758.5C1368.89 754.395 1368.89 749.089 1368.89 742H1369.11C1369.11 749.089 1369.11 754.395 1369.63 758.5C1370.16 762.603 1371.2 765.491 1373.27 767.753C1373.58 768.093 1373.91 768.419 1374.25 768.73C1376.51 770.802 1379.4 771.844 1383.5 772.367C1387.61 772.889 1392.91 772.889 1400 772.889V773.111C1392.91 773.111 1387.61 773.111 1383.5 773.633C1379.4 774.156 1376.51 775.198 1374.25 777.27C1373.91 777.581 1373.58 777.907 1373.27 778.247C1371.2 780.509 1370.16 783.397 1369.63 787.5C1369.11 791.605 1369.11 796.911 1369.11 804H1368.89C1368.89 796.911 1368.89 791.605 1368.37 787.5C1367.84 783.397 1366.8 780.509 1364.73 778.247C1364.42 777.907 1364.09 777.581 1363.75 777.27C1361.49 775.198 1358.6 774.156 1354.5 773.633C1350.39 773.111 1345.09 773.111 1338 773.111V772.889C1345.09 772.889 1350.39 772.889 1354.5 772.367C1358.6 771.844 1361.49 770.802 1363.75 768.73C1364.09 768.419 1364.42 768.093 1364.73 767.753C1366.8 765.491 1367.84 762.603 1368.37 758.5ZM1348.9 773C1351 773.075 1352.86 773.202 1354.53 773.414C1358.65 773.939 1361.59 774.991 1363.9 777.107C1364.25 777.422 1364.58 777.753 1364.89 778.097C1367.01 780.406 1368.06 783.346 1368.59 787.472C1368.8 789.139 1368.92 791.003 1369 793.099C1369.08 791.003 1369.2 789.139 1369.41 787.472C1369.94 783.346 1370.99 780.406 1373.11 778.097C1373.42 777.753 1373.75 777.422 1374.1 777.107C1376.41 774.991 1379.35 773.939 1383.47 773.414C1385.14 773.202 1387 773.075 1389.1 773C1387 772.925 1385.14 772.798 1383.47 772.586C1379.35 772.061 1376.41 771.009 1374.1 768.893C1373.75 768.578 1373.42 768.247 1373.11 767.903C1370.99 765.594 1369.94 762.654 1369.41 758.528C1369.2 756.861 1369.08 754.997 1369 752.901C1368.92 754.997 1368.8 756.861 1368.59 758.528C1368.06 762.654 1367.01 765.594 1364.89 767.903C1364.58 768.247 1364.25 768.578 1363.9 768.893C1361.59 771.009 1358.65 772.061 1354.53 772.586C1352.86 772.798 1351 772.925 1348.9 773Z" fill="#D0F5FF"/>
<path d="M1354.53 773.414C1352.86 773.202 1351 773.075 1348.9 773C1351 772.925 1352.86 772.798 1354.53 772.586C1358.65 772.061 1361.59 771.009 1363.9 768.893C1364.25 768.578 1364.58 768.247 1364.89 767.903C1367.01 765.594 1368.06 762.654 1368.59 758.528C1368.8 756.861 1368.92 754.997 1369 752.901C1369.08 754.997 1369.2 756.861 1369.41 758.528C1369.94 762.654 1370.99 765.594 1373.11 767.903C1373.42 768.247 1373.75 768.578 1374.1 768.893C1376.41 771.009 1379.35 772.061 1383.47 772.586C1385.14 772.798 1387 772.925 1389.1 773C1387 773.075 1385.14 773.202 1383.47 773.414C1379.35 773.939 1376.41 774.991 1374.1 777.107C1373.75 777.422 1373.42 777.753 1373.11 778.097C1370.99 780.406 1369.94 783.346 1369.41 787.472C1369.2 789.139 1369.08 791.003 1369 793.099C1368.92 791.003 1368.8 789.139 1368.59 787.472C1368.06 783.346 1367.01 780.406 1364.89 778.097C1364.58 777.753 1364.25 777.422 1363.9 777.107C1361.59 774.991 1358.65 773.939 1354.53 773.414Z" fill="#D0F5FF"/>
</g>
<defs>
<filter id="filter0_f_9_1458" x="562" y="681" width="818" height="684" filterUnits="userSpaceOnUse" color-interpolation-filters="sRGB">
<feFlood flood-opacity="0" result="BackgroundImageFix"/>
<feBlend mode="normal" in="SourceGraphic" in2="BackgroundImageFix" result="shape"/>
<feGaussianBlur stdDeviation="150" result="effect1_foregroundBlur_9_1458"/>
</filter>
<filter id="filter1_f_9_1458" x="943" y="-139" width="932" height="728" filterUnits="userSpaceOnUse" color-interpolation-filters="sRGB">
<feFlood flood-opacity="0" result="BackgroundImageFix"/>
<feBlend mode="normal" in="SourceGraphic" in2="BackgroundImageFix" result="shape"/>
<feGaussianBlur stdDeviation="150" result="effect1_foregroundBlur_9_1458"/>
</filter>
<filter id="filter2_f_9_1458" x="-466" y="96" width="932" height="728" filterUnits="userSpaceOnUse" color-interpolation-filters="sRGB">
<feFlood flood-opacity="0" result="BackgroundImageFix"/>
<feBlend mode="normal" in="SourceGraphic" in2="BackgroundImageFix" result="shape"/>
<feGaussianBlur stdDeviation="150" result="effect1_foregroundBlur_9_1458"/>
</filter>
<linearGradient id="paint0_linear_9_1458" x1="861.438" y1="1060.13" x2="1043.05" y2="920.326" gradientUnits="userSpaceOnUse">
<stop stop-color="#74D6FD"/>
<stop offset="1" stop-color="#E01DEE"/>
</linearGradient>
<linearGradient id="paint1_linear_9_1458" x1="1242.14" y1="281.577" x2="1518.85" y2="68.698" gradientUnits="userSpaceOnUse">
<stop stop-color="#74D6FD"/>
<stop offset="1" stop-color="#E01DEE"/>
</linearGradient>
<linearGradient id="paint2_linear_9_1458" x1="-166.856" y1="516.577" x2="109.851" y2="303.698" gradientUnits="userSpaceOnUse">
<stop stop-color="#74D6FD"/>
<stop offset="1" stop-color="#E01DEE"/>
</linearGradient>
<clipPath id="clip0_9_1458">
<rect width="1440" height="1099" fill="white"/>
</clipPath>
</defs>
</svg>
